0
SECTION
2
HEADER
9
$INSUNITS
70
4
9
$ACADVER
1
AC1014
9
$HANDSEED
5
FFFF
0
ENDSEC
0
SECTION
2
TABLES
0
TABLE
2
VPORT
5
8
100
AcDbSymbolTable
0
ENDTAB
0
TABLE
2
LTYPE
5
5
100
AcDbSymbolTable
0
LTYPE
5
14
100
AcDbSymbolTableRecord
100
AcDbLinetypeTableRecord
2
BYBLOCK
70
0
0
LTYPE
5
15
100
AcDbSymbolTableRecord
100
AcDbLinetypeTableRecord
2
BYLAYER
70
0
0
ENDTAB
0
TABLE
2
LAYER
5
2
100
AcDbSymbolTable
70
2
0
LAYER
5
50
100
AcDbSymbolTableRecord
100
AcDbLayerTableRecord
2
0
70
0
6
CONTINUOUS
0
ENDTAB
0
TABLE
2
STYLE
5
3
100
AcDbSymbolTable
70
1
0
STYLE
5
11
100
AcDbSymbolTableRecord
100
AcDbTextStyleTableRecord
2
STANDARD
70
0
0
ENDTAB
0
TABLE
2
VIEW
5
6
100
AcDbSymbolTable
70
0
0
ENDTAB
0
TABLE
2
UCS
5
7
100
AcDbSymbolTable
70
0
0
ENDTAB
0
TABLE
2
APPID
5
9
100
AcDbSymbolTable
70
2
0
APPID
5
12
100
AcDbSymbolTableRecord
100
AcDbRegAppTableRecord
2
ACAD
70
0
0
ENDTAB
0
TABLE
2
DIMSTYLE
5
A
100
AcDbSymbolTable
70
1
0
ENDTAB
0
TABLE
2
BLOCK_RECORD
5
1
100
AcDbSymbolTable
70
1
0
BLOCK_RECORD
5
1F
100
AcDbSymbolTableRecord
100
AcDbBlockTableRecord
2
*MODEL_SPACE
0
BLOCK_RECORD
5
1B
100
AcDbSymbolTableRecord
100
AcDbBlockTableRecord
2
*PAPER_SPACE
0
ENDTAB
0
ENDSEC
0
SECTION
2
BLOCKS
0
BLOCK
5
20
100
AcDbEntity
100
AcDbBlockBegin
2
*MODEL_SPACE
0
ENDBLK
5
21
100
AcDbEntity
100
AcDbBlockEnd
0
BLOCK
5
1C
100
AcDbEntity
100
AcDbBlockBegin
2
*PAPER_SPACE
0
ENDBLK
5
1D
100
AcDbEntity
100
AcDbBlockEnd
0
ENDSEC
0
SECTION
2
ENTITIES
0
LWPOLYLINE
5
100
100
AcDbEntity
8
0
100
AcDbPolyline
90
4
70
1
43
0.0
10
-348.49999900907278
20
43.000000000000007
10
-343.49999900907278
20
43.000000000000007
10
-343.49999900907278
20
46.000000000000007
10
-348.49999900907278
20
46.000000000000007
0
LWPOLYLINE
5
101
100
AcDbEntity
8
0
100
AcDbPolyline
90
4
70
1
43
0.0
10
-353.49999900907278
20
43.000000000000007
10
-353.49999900907278
20
46.000000000000007
10
-358.49999900907278
20
46.000000000000007
10
-358.49999900907278
20
43.000000000000007
0
LWPOLYLINE
5
102
100
AcDbEntity
8
0
100
AcDbPolyline
90
104
70
1
43
0.0
10
-353.49999908357432
20
2.999999999937601
10
-353.49999908357432
20
5.9999999999376019
10
-358.49999908356608
20
5.9999999999376019
10
-358.49999908357859
20
2.999999999937601
10
-358.88888888888886
20
3.0000000000000004
10
-358.88888888888886
20
0
10
-369.07407407407402
20
0
10
-369.07407407407402
20
3.0000000000000004
10
-379.25925925925924
20
3.0000000000000004
10
-379.25925925925924
20
0
10
-389.44444444444446
20
0
10
-389.44444444444446
20
3.0000000000000004
10
-399.62962962962962
20
3.0000000000000004
10
-399.62962962962962
20
0
10
-409.81481481481478
20
0
10
-409.81481481481478
20
3.0000000000000004
10
-420
20
3.0000000000000004
10
-420
20
13.363636522130534
10
-417
20
13.36363652213053
10
-417
20
23.727273044261068
10
-420
20
23.727273044261068
10
-420
20
34.090909566391602
10
-417
20
34.090909566391602
10
-417
20
44.454546088522129
10
-420
20
44.454546088522129
10
-420
20
54.818182610652656
10
-417
20
54.818182610652656
10
-417
20
65.181819132783204
10
-420
20
65.181819132783204
10
-420
20
75.545455654913724
10
-417
20
75.545455654913724
10
-417
20
85.909092177044272
10
-420
20
85.909092177044272
10
-420
20
96.27272869917482
10
-417
20
96.27272869917482
10
-417
20
106.63636522130533
10
-420
20
106.63636522130533
10
-420
20
117.00000174343586
10
-144.99999590218067
20
117.00000174343586
10
-144.99999590218067
20
106.63636522130533
10
-148.00000000000006
20
106.63636522130533
10
-148.00000000000006
20
96.27272869917482
10
-144.99999590218067
20
96.27272869917482
10
-144.99999590218067
20
85.909092177044272
10
-148.00000000000006
20
85.909092177044272
10
-148.00000000000006
20
75.545455654913724
10
-144.99999590218067
20
75.545455654913724
10
-144.99999590218067
20
65.181819132783204
10
-148.00000000000006
20
65.181819132783204
10
-148.00000000000006
20
54.818182610652656
10
-144.99999590218067
20
54.818182610652656
10
-144.99999590218067
20
44.454546088522129
10
-148.00000000000006
20
44.454546088522129
10
-148.00000000000006
20
34.090909566391588
10
-144.99999590218067
20
34.090909566391588
10
-144.99999590218067
20
23.727273044261061
10
-148.00000000000006
20
23.727273044261061
10
-148.00000000000006
20
13.36363652213053
10
-144.99999590218067
20
13.36363652213053
10
-145
20
2.9999999999999982
10
-155.18518518518519
20
3.0000000000000004
10
-155.18518518518519
20
0
10
-165.37037037037038
20
0
10
-165.37037037037038
20
3.0000000000000004
10
-175.55555555555557
20
3.0000000000000004
10
-175.55555555555557
20
0
10
-185.74074074074076
20
0
10
-185.74074074074076
20
3.0000000000000004
10
-195.92592592592595
20
3.0000000000000004
10
-195.92592592592595
20
0
10
-206.11111111111114
20
0
10
-206.11111111111114
20
3.0000000000000004
10
-206.49999681860209
20
2.9999999999997162
10
-206.49999681860209
20
5.9999999999997167
10
-211.49999681860209
20
5.9999999999997167
10
-211.49999681860209
20
2.9999999999997162
10
-216.29629629629633
20
3.0000000000000004
10
-216.29629629629633
20
0
10
-226.48148148148152
20
0
10
-226.48148148148152
20
3.0000000000000004
10
-236.66666666666671
20
3.0000000000000004
10
-236.66666666666671
20
0
10
-246.8518518518519
20
0
10
-246.8518518518519
20
3.0000000000000004
10
-257.03703703703707
20
3.0000000000000004
10
-257.03703703703707
20
0
10
-267.22222222222229
20
0
10
-267.22222222222229
20
3.0000000000000004
10
-277.4074074074075
20
3.0000000000000004
10
-277.4074074074075
20
0
10
-287.59259259259261
20
0
10
-287.59259259259261
20
3.0000000000000004
10
-297.77777777777777
20
3.0000000000000004
10
-297.77777777777777
20
0
10
-307.96296296296299
20
0
10
-307.96296296296299
20
3.0000000000000004
10
-318.14814814814815
20
3.0000000000000004
10
-318.14814814814815
20
0
10
-328.33333333333337
20
0
10
-328.33333333333337
20
3.0000000000000004
10
-338.51851851851853
20
3.0000000000000004
10
-338.51851851851853
20
0
10
-348.7037037037037
20
0
10
-348.7037037037037
20
3.0000000000000004
0
LWPOLYLINE
5
103
100
AcDbEntity
8
0
100
AcDbPolyline
90
4
70
1
43
0.0
10
-348.49999908357017
20
5.9999999999376019
10
-348.49999908357017
20
2.999999999937601
10
-343.49999908357859
20
2.999999999937601
10
-343.49999908356608
20
5.9999999999376019
0
LWPOLYLINE
5
104
100
AcDbEntity
8
0
100
AcDbPolyline
90
4
70
1
43
0.0
10
-216.49999681860209
20
46
10
-221.49999681860209
20
46
10
-221.49999681860209
20
43
10
-216.49999681860209
20
43
0
LWPOLYLINE
5
105
100
AcDbEntity
8
0
100
AcDbPolyline
90
4
70
1
43
0.0
10
-211.49999681860209
20
46
10
-211.49999681860209
20
43
10
-206.49999681860209
20
43
10
-206.49999681860209
20
46
0
LWPOLYLINE
5
106
100
AcDbEntity
8
0
100
AcDbPolyline
90
4
70
1
43
0.0
10
-216.49999681860209
20
2.9999999999997162
10
-216.49999681860209
20
5.9999999999997167
10
-221.49999681860209
20
5.9999999999997167
10
-221.49999681860209
20
2.9999999999997162
0
ENDSEC
0
SECTION
2
OBJECTS
0
DICTIONARY
5
C
100
AcDbDictionary
3
ACAD_GROUP
350
D
3
ACAD_MLINESTYLE
350
17
0
DICTIONARY
5
D
100
AcDbDictionary
0
DICTIONARY
5
1A
330
C
100
AcDbDictionary
0
DICTIONARY
5
17
100
AcDbDictionary
0
ENDSEC
0
EOF
