0
SECTION
2
HEADER
9
$INSUNITS
70
4
9
$ACADVER
1
AC1014
9
$HANDSEED
5
FFFF
0
ENDSEC
0
SECTION
2
TABLES
0
TABLE
2
VPORT
5
8
100
AcDbSymbolTable
0
ENDTAB
0
TABLE
2
LTYPE
5
5
100
AcDbSymbolTable
0
LTYPE
5
14
100
AcDbSymbolTableRecord
100
AcDbLinetypeTableRecord
2
BYBLOCK
70
0
0
LTYPE
5
15
100
AcDbSymbolTableRecord
100
AcDbLinetypeTableRecord
2
BYLAYER
70
0
0
ENDTAB
0
TABLE
2
LAYER
5
2
100
AcDbSymbolTable
70
2
0
LAYER
5
50
100
AcDbSymbolTableRecord
100
AcDbLayerTableRecord
2
0
70
0
6
CONTINUOUS
0
ENDTAB
0
TABLE
2
STYLE
5
3
100
AcDbSymbolTable
70
1
0
STYLE
5
11
100
AcDbSymbolTableRecord
100
AcDbTextStyleTableRecord
2
STANDARD
70
0
0
ENDTAB
0
TABLE
2
VIEW
5
6
100
AcDbSymbolTable
70
0
0
ENDTAB
0
TABLE
2
UCS
5
7
100
AcDbSymbolTable
70
0
0
ENDTAB
0
TABLE
2
APPID
5
9
100
AcDbSymbolTable
70
2
0
APPID
5
12
100
AcDbSymbolTableRecord
100
AcDbRegAppTableRecord
2
ACAD
70
0
0
ENDTAB
0
TABLE
2
DIMSTYLE
5
A
100
AcDbSymbolTable
70
1
0
ENDTAB
0
TABLE
2
BLOCK_RECORD
5
1
100
AcDbSymbolTable
70
1
0
BLOCK_RECORD
5
1F
100
AcDbSymbolTableRecord
100
AcDbBlockTableRecord
2
*MODEL_SPACE
0
BLOCK_RECORD
5
1B
100
AcDbSymbolTableRecord
100
AcDbBlockTableRecord
2
*PAPER_SPACE
0
ENDTAB
0
ENDSEC
0
SECTION
2
BLOCKS
0
BLOCK
5
20
100
AcDbEntity
100
AcDbBlockBegin
2
*MODEL_SPACE
0
ENDBLK
5
21
100
AcDbEntity
100
AcDbBlockEnd
0
BLOCK
5
1C
100
AcDbEntity
100
AcDbBlockBegin
2
*PAPER_SPACE
0
ENDBLK
5
1D
100
AcDbEntity
100
AcDbBlockEnd
0
ENDSEC
0
SECTION
2
ENTITIES
0
LWPOLYLINE
5
100
100
AcDbEntity
8
0
100
AcDbPolyline
90
4
70
1
43
0.0
10
247.00000000000003
20
120
10
236.52631582947151
20
120
10
236.52631582947151
20
117
10
247.00000000000003
20
117
0
LWPOLYLINE
5
101
100
AcDbEntity
8
0
100
AcDbPolyline
90
4
70
1
43
0.0
10
48.000000759959249
20
120
10
48.000000759959249
20
117
10
58.473684930487693
20
117
10
58.473684930487693
20
120
0
LWPOLYLINE
5
102
100
AcDbEntity
8
0
100
AcDbPolyline
90
4
70
1
43
0.0
10
100.36842161260154
20
120
10
89.894737442073094
20
120
10
89.894737442073094
20
117
10
100.36842161260154
20
117
0
LWPOLYLINE
5
103
100
AcDbEntity
8
0
100
AcDbPolyline
90
4
70
1
43
0.0
10
131.78947412418694
20
120
10
131.78947412418694
20
117
10
142.26315829471537
20
117
10
142.26315829471537
20
120
0
LWPOLYLINE
5
104
100
AcDbEntity
8
0
100
AcDbPolyline
90
4
70
1
43
0.0
10
184.15789497682923
20
120
10
173.68421080630077
20
120
10
173.68421080630077
20
117
10
184.15789497682923
20
117
0
LWPOLYLINE
5
105
100
AcDbEntity
8
0
100
AcDbPolyline
90
4
70
1
43
0.0
10
152.73684246524383
20
120
10
152.73684246524383
20
117
10
163.21052663577234
20
117
10
163.21052663577234
20
120
0
LWPOLYLINE
5
106
100
AcDbEntity
8
0
100
AcDbPolyline
90
4
70
1
43
0.0
10
205.10526331788611
20
120
10
194.63157914735768
20
120
10
194.63157914735768
20
117
10
205.10526331788611
20
117
0
LWPOLYLINE
5
107
100
AcDbEntity
8
0
100
AcDbPolyline
90
4
70
1
43
0.0
10
110.84210578313005
20
120
10
110.84210578313005
20
117
10
121.31578995365842
20
117
10
121.31578995365842
20
120
0
LWPOLYLINE
5
108
100
AcDbEntity
8
0
100
AcDbPolyline
90
4
70
1
43
0.0
10
226.05263165894308
20
120
10
215.57894748841463
20
120
10
215.57894748841463
20
117
10
226.05263165894308
20
117
0
LWPOLYLINE
5
109
100
AcDbEntity
8
0
100
AcDbPolyline
90
4
70
1
43
0.0
10
68.947369101016136
20
120
10
68.947369101016136
20
117
10
79.42105327154465
20
117
10
79.42105327154465
20
120
0
LWPOLYLINE
5
110
100
AcDbEntity
8
0
100
AcDbPolyline
90
116
70
1
43
0.0
10
3.0000000000000071
20
188.14285739191942
10
3.0000000000000071
20
200
10
247.00000000000003
20
200
10
247.00000000000003
20
189.4736842105263
10
250
20
189.4736842105263
10
250
20
178.94736842105263
10
247.00000000000003
20
178.94736842105263
10
247.00000000000003
20
168.42105263157893
10
250
20
168.42105263157893
10
250
20
157.89473684210526
10
247.00000000000003
20
157.89473684210526
10
247.00000000000003
20
147.36842105263156
10
250
20
147.36842105263156
10
250
20
136.84210526315789
10
247.00000000000003
20
136.84210526315789
10
247.00000000000003
20
126.31578947368422
10
250
20
126.31578947368422
10
250
20
115.78947368421053
10
247.00000000000003
20
115.78947368421053
10
247.00000000000003
20
105.26315789473684
10
250
20
105.26315789473684
10
250
20
94.736842105263165
10
247.00000000000003
20
94.736842105263165
10
247.00000000000003
20
84.210526315789465
10
250
20
84.210526315789465
10
250
20
73.68421052631578
10
247.00000000000003
20
73.68421052631578
10
247.00000000000003
20
63.157894736842088
10
250
20
63.157894736842088
10
250
20
52.631578947368425
10
247.00000000000003
20
52.631578947368425
10
247.00000000000003
20
42.105263157894726
10
250
20
42.105263157894726
10
250
20
31.578947368421062
10
247.00000000000003
20
31.578947368421062
10
247.00000000000003
20
21.052631578947363
10
250
20
21.052631578947363
10
250
20
10.526315789473699
10
247.00000000000003
20
10.526315789473699
10
247.00000000000003
20
3.0000000000000071
10
236.26086956521746
20
3.0000000000000004
10
236.26086956521746
20
0
10
225.52173913043481
20
0
10
225.52173913043481
20
3.0000000000000004
10
214.78260869565219
20
3.0000000000000004
10
214.78260869565219
20
0
10
204.04347826086962
20
0
10
204.04347826086962
20
3.0000000000000004
10
193.304347826087
20
3.0000000000000004
10
193.304347826087
20
0
10
182.56521739130434
20
0
10
182.56521739130434
20
3.0000000000000004
10
171.82608695652178
20
3.0000000000000004
10
171.82608695652178
20
0
10
161.08695652173913
20
0
10
161.08695652173913
20
3.0000000000000004
10
150.34782608695656
20
3.0000000000000004
10
150.34782608695656
20
0
10
139.60869565217394
20
0
10
139.60869565217394
20
3.0000000000000004
10
128.86956521739137
20
3.0000000000000004
10
128.86956521739137
20
0
10
118.13043478260873
20
0
10
118.13043478260873
20
3.0000000000000004
10
107.39130434782609
20
3.0000000000000004
10
107.39130434782609
20
0
10
96.652173913043526
20
0
10
96.652173913043526
20
3.0000000000000004
10
85.913043478260889
20
3.0000000000000004
10
85.913043478260889
20
0
10
75.173913043478251
20
0
10
75.173913043478251
20
3.0000000000000004
10
64.434782608695684
20
3.0000000000000004
10
64.434782608695684
20
0
10
53.695652173913118
20
0
10
53.695652173913118
20
3.0000000000000004
10
42.956521739130409
20
3.0000000000000004
10
42.956521739130409
20
0
10
32.217391304347842
20
0
10
32.217391304347842
20
3.0000000000000004
10
21.478260869565204
20
3.0000000000000004
10
21.478260869565204
20
0
10
10.739130434782638
20
0
10
10.739130434782638
20
3.0000000000000004
10
3.0000000000000071
20
3.0000000000000071
10
3.0000000000000338
20
13.363636522130538
10
0
20
13.36363652213053
10
2.6645352591003757e-14
20
23.727273044261064
10
3.0000000000000071
20
23.727273044261061
10
3.0000000000000338
20
34.090909566391588
10
0
20
34.090909566391588
10
2.6645352591003757e-14
20
44.454546088522129
10
3.0000000000000071
20
44.454546088522129
10
3.0000000000000249
20
54.818182610652656
10
0
20
54.818182610652656
10
2.6645352591003757e-14
20
65.18181913278319
10
3.0000000000000071
20
65.181819132783204
10
3.0000000000000338
20
75.545455654913738
10
0
20
75.545455654913724
10
2.6645352591003757e-14
20
85.909092177044286
10
3.0000000000000071
20
85.909092177044272
10
3.0000000000000249
20
96.272728699174834
10
0
20
96.27272869917482
10
2.6645352591003757e-14
20
106.63636522130531
10
3.0000000000000071
20
106.63636522130533
10
3.0000000000000249
20
128.85714435151644
10
0
20
128.85714435151644
10
2.6645352591003757e-14
20
140.71428695959702
10
3.0000000000000071
20
140.71428695959705
10
3.0000000000000249
20
152.57142956767765
10
0
20
152.57142956767763
10
2.6645352591003757e-14
20
164.42857217575823
10
3.0000000000000071
20
164.42857217575823
10
3.0000000000000338
20
176.28571478383884
10
0
20
176.28571478383884
10
2.6645352591003757e-14
20
188.14285739191942
0
ENDSEC
0
SECTION
2
OBJECTS
0
DICTIONARY
5
C
100
AcDbDictionary
3
ACAD_GROUP
350
D
3
ACAD_MLINESTYLE
350
17
0
DICTIONARY
5
D
100
AcDbDictionary
0
DICTIONARY
5
1A
330
C
100
AcDbDictionary
0
DICTIONARY
5
17
100
AcDbDictionary
0
ENDSEC
0
EOF
