0
SECTION
2
HEADER
9
$INSUNITS
70
4
9
$ACADVER
1
AC1014
9
$HANDSEED
5
FFFF
0
ENDSEC
0
SECTION
2
TABLES
0
TABLE
2
VPORT
5
8
100
AcDbSymbolTable
0
ENDTAB
0
TABLE
2
LTYPE
5
5
100
AcDbSymbolTable
0
LTYPE
5
14
100
AcDbSymbolTableRecord
100
AcDbLinetypeTableRecord
2
BYBLOCK
70
0
0
LTYPE
5
15
100
AcDbSymbolTableRecord
100
AcDbLinetypeTableRecord
2
BYLAYER
70
0
0
ENDTAB
0
TABLE
2
LAYER
5
2
100
AcDbSymbolTable
70
2
0
LAYER
5
50
100
AcDbSymbolTableRecord
100
AcDbLayerTableRecord
2
0
70
0
6
CONTINUOUS
0
ENDTAB
0
TABLE
2
STYLE
5
3
100
AcDbSymbolTable
70
1
0
STYLE
5
11
100
AcDbSymbolTableRecord
100
AcDbTextStyleTableRecord
2
STANDARD
70
0
0
ENDTAB
0
TABLE
2
VIEW
5
6
100
AcDbSymbolTable
70
0
0
ENDTAB
0
TABLE
2
UCS
5
7
100
AcDbSymbolTable
70
0
0
ENDTAB
0
TABLE
2
APPID
5
9
100
AcDbSymbolTable
70
2
0
APPID
5
12
100
AcDbSymbolTableRecord
100
AcDbRegAppTableRecord
2
ACAD
70
0
0
ENDTAB
0
TABLE
2
DIMSTYLE
5
A
100
AcDbSymbolTable
70
1
0
ENDTAB
0
TABLE
2
BLOCK_RECORD
5
1
100
AcDbSymbolTable
70
1
0
BLOCK_RECORD
5
1F
100
AcDbSymbolTableRecord
100
AcDbBlockTableRecord
2
*MODEL_SPACE
0
BLOCK_RECORD
5
1B
100
AcDbSymbolTableRecord
100
AcDbBlockTableRecord
2
*PAPER_SPACE
0
ENDTAB
0
ENDSEC
0
SECTION
2
BLOCKS
0
BLOCK
5
20
100
AcDbEntity
100
AcDbBlockBegin
2
*MODEL_SPACE
0
ENDBLK
5
21
100
AcDbEntity
100
AcDbBlockEnd
0
BLOCK
5
1C
100
AcDbEntity
100
AcDbBlockBegin
2
*PAPER_SPACE
0
ENDBLK
5
1D
100
AcDbEntity
100
AcDbBlockEnd
0
ENDSEC
0
SECTION
2
ENTITIES
0
LWPOLYLINE
5
100
100
AcDbEntity
8
0
100
AcDbPolyline
90
4
70
1
43
0.0
10
353.50000000000011
20
-141.33333333333331
10
353.50000000000011
20
-152
10
356.50000000000006
20
-152
10
356.50000000000006
20
-141.33333333333331
0
LWPOLYLINE
5
101
100
AcDbEntity
8
0
100
AcDbPolyline
90
4
70
1
43
0.0
10
353.50000000000011
20
-130.66666666666666
10
356.50000000000006
20
-130.66666666666666
10
356.50000000000006
20
-120
10
353.50000000000011
20
-120
0
LWPOLYLINE
5
102
100
AcDbEntity
8
0
100
AcDbPolyline
90
4
70
1
43
0.0
10
211.50000000000003
20
-130.66666666666666
10
211.50000000000003
20
-120
10
208.5
20
-120
10
208.5
20
-130.66666666666666
0
LWPOLYLINE
5
103
100
AcDbEntity
8
0
100
AcDbPolyline
90
4
70
1
43
0.0
10
211.50000000000003
20
-141.33333333333331
10
208.5
20
-141.33333333333331
10
208.5
20
-152
10
211.50000000000003
20
-152
0
LWPOLYLINE
5
104
100
AcDbEntity
8
0
100
AcDbPolyline
90
104
70
1
43
0.0
10
353.49999900907278
20
-48.000000759959214
10
420
20
-48.000000759959214
10
420
20
-58.473684930487678
10
417
20
-58.473684930487678
10
417
20
-68.947369101016136
10
420
20
-68.947369101016136
10
420
20
-79.421053271544594
10
417
20
-79.421053271544594
10
417
20
-89.894737442073051
10
420
20
-89.894737442073051
10
420
20
-100.36842161260152
10
417
20
-100.36842161260152
10
417
20
-110.84210578312998
10
420
20
-110.84210578312998
10
420
20
-121.31578995365844
10
417
20
-121.31578995365844
10
417
20
-131.78947412418691
10
420
20
-131.78947412418691
10
420
20
-142.26315829471534
10
417
20
-142.26315829471534
10
417
20
-152.73684246524383
10
420
20
-152.73684246524383
10
420
20
-163.21052663577228
10
417
20
-163.21052663577228
10
417
20
-173.68421080630074
10
420
20
-173.68421080630074
10
420
20
-184.1578949768292
10
417
20
-184.1578949768292
10
417
20
-194.63157914735768
10
420
20
-194.63157914735768
10
420
20
-205.10526331788611
10
417
20
-205.10526331788611
10
417
20
-215.5789474884146
10
420
20
-215.5789474884146
10
420
20
-226.05263165894303
10
417
20
-226.05263165894303
10
417
20
-236.52631582947151
10
420
20
-236.52631582947151
10
420
20
-247
10
145.00000000000003
20
-247
10
145.00000000000003
20
-236.52631582947151
10
148.00000000000006
20
-236.52631582947151
10
148.00000000000006
20
-226.05263165894308
10
145.00000000000003
20
-226.05263165894308
10
145.00000000000003
20
-215.57894748841463
10
148.00000000000006
20
-215.57894748841463
10
148.00000000000006
20
-205.10526331788614
10
145.00000000000003
20
-205.10526331788614
10
145.00000000000003
20
-194.63157914735768
10
148.00000000000006
20
-194.63157914735768
10
148.00000000000006
20
-184.15789497682923
10
145.00000000000003
20
-184.15789497682923
10
145.00000000000003
20
-173.68421080630077
10
148.00000000000006
20
-173.68421080630077
10
148.00000000000006
20
-163.21052663577231
10
145.00000000000003
20
-163.21052663577231
10
145.00000000000003
20
-152.73684246524385
10
148.00000000000006
20
-152.73684246524385
10
148.00000000000006
20
-142.26315829471537
10
145.00000000000003
20
-142.26315829471537
10
145.00000000000003
20
-131.78947412418694
10
148.00000000000006
20
-131.78947412418694
10
148.00000000000006
20
-121.31578995365845
10
145.00000000000003
20
-121.31578995365845
10
145.00000000000003
20
-110.84210578313002
10
148.00000000000006
20
-110.84210578313002
10
148.00000000000006
20
-100.36842161260154
10
145.00000000000003
20
-100.36842161260154
10
145.00000000000003
20
-89.894737442073094
10
148.00000000000006
20
-89.894737442073094
10
148.00000000000006
20
-79.421053271544622
10
145.00000000000003
20
-79.421053271544622
10
145.00000000000003
20
-68.947369101016164
10
148.00000000000006
20
-68.947369101016164
10
148.00000000000006
20
-58.473684930487693
10
145.00000000000003
20
-58.473684930487693
10
145.00000000000003
20
-48.000000759959214
10
211.49999689310789
20
-48.000000759959214
10
211.49999900907275
20
6.6613381477509392e-15
10
222.42307397895132
20
0
10
222.42307397895132
20
-3.0000000000000071
10
233.34615106479481
20
-3.0000000000000071
10
233.34615106479481
20
0
10
244.26922815063824
20
0
10
244.26922815063824
20
-3.0000000000000071
10
255.19230523648167
20
-3.0000000000000071
10
255.19230523648167
20
0
10
266.11538232232516
20
0
10
266.11538232232516
20
-3.0000000000000071
10
277.03845940816859
20
-3.0000000000000071
10
277.03845940816859
20
0
10
287.96153649401208
20
0
10
287.96153649401208
20
-3.0000000000000071
10
298.88461357985545
20
-3.0000000000000071
10
298.88461357985545
20
0
10
309.807690665699
20
0
10
309.807690665699
20
-3.0000000000000071
10
320.73076775154243
20
-3.0000000000000071
10
320.73076775154243
20
0
10
331.65384483738592
20
0
10
331.65384483738592
20
-3.0000000000000071
10
342.57692192322935
20
-3.0000000000000071
10
342.57692192322935
20
0
10
353.49999900907278
20
8.8817841970012523e-15
0
ENDSEC
0
SECTION
2
OBJECTS
0
DICTIONARY
5
C
100
AcDbDictionary
3
ACAD_GROUP
350
D
3
ACAD_MLINESTYLE
350
17
0
DICTIONARY
5
D
100
AcDbDictionary
0
DICTIONARY
5
1A
330
C
100
AcDbDictionary
0
DICTIONARY
5
17
100
AcDbDictionary
0
ENDSEC
0
EOF
