0
SECTION
2
HEADER
9
$INSUNITS
70
4
9
$ACADVER
1
AC1014
9
$HANDSEED
5
FFFF
0
ENDSEC
0
SECTION
2
TABLES
0
TABLE
2
VPORT
5
8
100
AcDbSymbolTable
0
ENDTAB
0
TABLE
2
LTYPE
5
5
100
AcDbSymbolTable
0
LTYPE
5
14
100
AcDbSymbolTableRecord
100
AcDbLinetypeTableRecord
2
BYBLOCK
70
0
0
LTYPE
5
15
100
AcDbSymbolTableRecord
100
AcDbLinetypeTableRecord
2
BYLAYER
70
0
0
ENDTAB
0
TABLE
2
LAYER
5
2
100
AcDbSymbolTable
70
2
0
LAYER
5
50
100
AcDbSymbolTableRecord
100
AcDbLayerTableRecord
2
0
70
0
6
CONTINUOUS
0
ENDTAB
0
TABLE
2
STYLE
5
3
100
AcDbSymbolTable
70
1
0
STYLE
5
11
100
AcDbSymbolTableRecord
100
AcDbTextStyleTableRecord
2
STANDARD
70
0
0
ENDTAB
0
TABLE
2
VIEW
5
6
100
AcDbSymbolTable
70
0
0
ENDTAB
0
TABLE
2
UCS
5
7
100
AcDbSymbolTable
70
0
0
ENDTAB
0
TABLE
2
APPID
5
9
100
AcDbSymbolTable
70
2
0
APPID
5
12
100
AcDbSymbolTableRecord
100
AcDbRegAppTableRecord
2
ACAD
70
0
0
ENDTAB
0
TABLE
2
DIMSTYLE
5
A
100
AcDbSymbolTable
70
1
0
ENDTAB
0
TABLE
2
BLOCK_RECORD
5
1
100
AcDbSymbolTable
70
1
0
BLOCK_RECORD
5
1F
100
AcDbSymbolTableRecord
100
AcDbBlockTableRecord
2
*MODEL_SPACE
0
BLOCK_RECORD
5
1B
100
AcDbSymbolTableRecord
100
AcDbBlockTableRecord
2
*PAPER_SPACE
0
ENDTAB
0
ENDSEC
0
SECTION
2
BLOCKS
0
BLOCK
5
20
100
AcDbEntity
100
AcDbBlockBegin
2
*MODEL_SPACE
0
ENDBLK
5
21
100
AcDbEntity
100
AcDbBlockEnd
0
BLOCK
5
1C
100
AcDbEntity
100
AcDbBlockBegin
2
*PAPER_SPACE
0
ENDBLK
5
1D
100
AcDbEntity
100
AcDbBlockEnd
0
ENDSEC
0
SECTION
2
ENTITIES
0
CIRCLE
5
100
100
AcDbEntity
8
0
100
AcDbCircle
10
94.500001408159733
20
29.500000439584255
30
0
40
1.5000000000000036
210
0
220
0
230
1
0
LWPOLYLINE
5
101
100
AcDbEntity
8
0
100
AcDbPolyline
90
60
70
1
43
0.0
10
98
20
5.9999999999999982
10
98
20
0
10
95.684210526315795
20
0
10
95.684210526315795
20
2.9999999999999982
10
90.368421052631589
20
2.9999999999999982
10
90.368421052631589
20
0
10
85.052631578947384
20
0
10
85.052631578947384
20
2.9999999999999982
10
79.736842105263165
20
2.9999999999999982
10
79.736842105263165
20
0
10
74.421052631578959
20
0
10
74.421052631578959
20
2.9999999999999982
10
69.10526315789474
20
2.9999999999999982
10
69.10526315789474
20
0
10
63.789473684210527
20
0
10
63.789473684210527
20
2.9999999999999982
10
58.473684210526322
20
2.9999999999999982
10
58.473684210526322
20
0
10
53.15789473684211
20
0
10
53.15789473684211
20
2.9999999999999982
10
47.842105263157897
20
2.9999999999999982
10
47.842105263157897
20
0
10
42.526315789473685
20
0
10
42.526315789473685
20
2.9999999999999982
10
37.21052631578948
20
2.9999999999999982
10
37.21052631578948
20
0
10
31.89473684210526
20
0
10
31.89473684210526
20
2.9999999999999982
10
26.578947368421055
20
2.9999999999999982
10
26.578947368421055
20
0
10
21.263157894736835
20
0
10
21.263157894736835
20
2.9999999999999982
10
15.94736842105263
20
2.9999999999999982
10
15.94736842105263
20
0
10
10.631578947368432
20
0
10
10.631578947368432
20
2.9999999999999982
10
5.3157894736841982
20
2.9999999999999982
10
5.3157894736841982
20
0
10
0
20
0
10
0
20
5.5555555555555536
10
2.9999999999999982
20
5.5555555555555536
10
2.9999999999999982
20
11.111111111111111
10
0
20
11.111111111111111
10
0
20
16.666666666666664
10
2.9999999999999982
20
16.666666666666664
10
2.9999999999999982
20
22.222222222222221
10
0
20
22.222222222222221
10
0
20
27.777777777777779
10
2.9999999999999982
20
27.777777777777779
10
2.9999999999999982
20
33.333333333333336
10
0
20
33.333333333333336
10
0
20
38.888888888888886
10
2.9999999999999982
20
38.888888888888886
10
3.0000000000000071
20
40
10
101.00000000000001
20
40
10
101.00000000000001
20
18
10
98
20
18
10
98
20
11.999999999999996
10
101.00000000000001
20
11.999999999999996
10
101.00000000000001
20
5.9999999999999982
0
ENDSEC
0
SECTION
2
OBJECTS
0
DICTIONARY
5
C
100
AcDbDictionary
3
ACAD_GROUP
350
D
3
ACAD_MLINESTYLE
350
17
0
DICTIONARY
5
D
100
AcDbDictionary
0
DICTIONARY
5
1A
330
C
100
AcDbDictionary
0
DICTIONARY
5
17
100
AcDbDictionary
0
ENDSEC
0
EOF
