0
SECTION
2
HEADER
9
$INSUNITS
70
4
9
$ACADVER
1
AC1014
9
$HANDSEED
5
FFFF
0
ENDSEC
0
SECTION
2
TABLES
0
TABLE
2
VPORT
5
8
100
AcDbSymbolTable
0
ENDTAB
0
TABLE
2
LTYPE
5
5
100
AcDbSymbolTable
0
LTYPE
5
14
100
AcDbSymbolTableRecord
100
AcDbLinetypeTableRecord
2
BYBLOCK
70
0
0
LTYPE
5
15
100
AcDbSymbolTableRecord
100
AcDbLinetypeTableRecord
2
BYLAYER
70
0
0
ENDTAB
0
TABLE
2
LAYER
5
2
100
AcDbSymbolTable
70
2
0
LAYER
5
50
100
AcDbSymbolTableRecord
100
AcDbLayerTableRecord
2
0
70
0
6
CONTINUOUS
0
ENDTAB
0
TABLE
2
STYLE
5
3
100
AcDbSymbolTable
70
1
0
STYLE
5
11
100
AcDbSymbolTableRecord
100
AcDbTextStyleTableRecord
2
STANDARD
70
0
0
ENDTAB
0
TABLE
2
VIEW
5
6
100
AcDbSymbolTable
70
0
0
ENDTAB
0
TABLE
2
UCS
5
7
100
AcDbSymbolTable
70
0
0
ENDTAB
0
TABLE
2
APPID
5
9
100
AcDbSymbolTable
70
2
0
APPID
5
12
100
AcDbSymbolTableRecord
100
AcDbRegAppTableRecord
2
ACAD
70
0
0
ENDTAB
0
TABLE
2
DIMSTYLE
5
A
100
AcDbSymbolTable
70
1
0
ENDTAB
0
TABLE
2
BLOCK_RECORD
5
1
100
AcDbSymbolTable
70
1
0
BLOCK_RECORD
5
1F
100
AcDbSymbolTableRecord
100
AcDbBlockTableRecord
2
*MODEL_SPACE
0
BLOCK_RECORD
5
1B
100
AcDbSymbolTableRecord
100
AcDbBlockTableRecord
2
*PAPER_SPACE
0
ENDTAB
0
ENDSEC
0
SECTION
2
BLOCKS
0
BLOCK
5
20
100
AcDbEntity
100
AcDbBlockBegin
2
*MODEL_SPACE
0
ENDBLK
5
21
100
AcDbEntity
100
AcDbBlockEnd
0
BLOCK
5
1C
100
AcDbEntity
100
AcDbBlockBegin
2
*PAPER_SPACE
0
ENDBLK
5
1D
100
AcDbEntity
100
AcDbBlockEnd
0
ENDSEC
0
SECTION
2
ENTITIES
0
LWPOLYLINE
5
100
100
AcDbEntity
8
0
100
AcDbPolyline
90
164
70
1
43
0.0
10
264.81481481481478
20
360
10
264.81481481481478
20
363
10
275
20
363
10
275
20
352.33333333333337
10
272
20
352.33333333333337
10
272
20
341.66666666666674
10
275
20
341.66666666666674
10
275
20
331
10
272
20
330.99999999999994
10
272
20
320.33333333333331
10
275
20
320.33333333333331
10
275
20
309.66666666666669
10
272
20
309.66666666666663
10
272
20
299
10
275
20
299
10
275
20
288.33333333333337
10
272
20
288.33333333333331
10
272
20
277.66666666666663
10
275
20
277.66666666666663
10
275
20
267
10
272
20
267
10
272
20
256.33333333333331
10
275
20
256.33333333333331
10
275
20
245.66666666666666
10
272
20
245.66666666666666
10
272
20
235
10
275
20
235
10
275
20
224.33333333333334
10
272
20
224.33333333333334
10
272
20
213.66666666666669
10
275
20
213.66666666666669
10
275
20
200
10
264.81481481481484
20
200
10
264.81481481481484
20
203
10
254.62962962962965
20
203
10
254.62962962962965
20
200
10
244.44444444444446
20
200
10
244.44444444444446
20
203
10
234.25925925925927
20
203
10
234.25925925925927
20
200
10
224.07407407407413
20
200
10
224.07407407407413
20
203
10
213.88888888888891
20
203
10
213.88888888888891
20
200
10
203.70370370370375
20
200
10
203.70370370370375
20
203
10
193.51851851851853
20
203
10
193.51851851851853
20
200
10
183.33333333333337
20
200
10
183.33333333333337
20
203
10
173.14814814814815
20
203
10
173.14814814814815
20
200
10
162.96296296296299
20
200
10
162.96296296296299
20
203
10
152.77777777777777
20
203
10
152.77777777777777
20
200
10
142.59259259259261
20
200
10
142.59259259259261
20
203
10
132.40740740740742
20
203
10
132.40740740740742
20
200
10
122.22222222222226
20
200
10
122.22222222222226
20
203
10
112.03703703703707
20
203
10
112.03703703703707
20
200
10
101.85185185185188
20
200
10
101.85185185185188
20
203
10
91.666666666666686
20
203
10
91.666666666666686
20
200
10
81.481481481481495
20
200
10
81.481481481481495
20
203
10
71.296296296296305
20
203
10
71.296296296296305
20
200
10
61.111111111111128
20
200
10
61.111111111111128
20
203
10
50.925925925925938
20
203
10
50.925925925925938
20
200
10
40.740740740740748
20
200
10
40.740740740740748
20
203
10
30.555555555555554
20
203
10
30.555555555555554
20
200
10
20.370370370370374
20
200
10
20.370370370370374
20
203
10
10.185185185185187
20
203
10
10.185185185185187
20
200
10
0
20
200
10
0
20
213.66666682859264
10
3.0000000000000071
20
213.66666682859261
10
3.0000000000000071
20
224.33333365718525
10
0
20
224.33333365718528
10
0
20
235.00000048577789
10
3.0000000000000071
20
235.00000048577789
10
3.0000000000000071
20
245.6666673143705
10
0
20
245.6666673143705
10
0
20
256.33333414296311
10
3.0000000000000071
20
256.33333414296311
10
3.0000000000000071
20
267.00000097155572
10
0
20
267.00000097155572
10
0
20
277.66666780014833
10
3.0000000000000071
20
277.66666780014833
10
3.0000000000000071
20
288.33333462874094
10
0
20
288.33333462874094
10
0
20
299.00000145733361
10
3.0000000000000071
20
299.00000145733361
10
3.0000000000000071
20
309.66666828592616
10
0
20
309.66666828592616
10
0
20
320.33333511451877
10
3.0000000000000071
20
320.33333511451877
10
3.0000000000000071
20
331.00000194311144
10
0
20
331.00000194311133
10
0
20
341.666668771704
10
3.0000000000000071
20
341.666668771704
10
3.0000000000000071
20
352.33333560029666
10
0
20
352.33333560029666
10
0
20
363
10
10.185185185185155
20
363
10
10.185185185185155
20
360
10
20.370370370370345
20
360
10
20.370370370370345
20
363
10
30.555555555555536
20
363
10
30.555555555555536
20
360
10
40.740740740740726
20
360
10
40.740740740740726
20
363
10
50.925925925925917
20
363
10
50.925925925925917
20
360
10
61.111111111111072
20
360
10
61.111111111111072
20
363
10
71.296296296296262
20
363
10
71.296296296296262
20
360
10
81.481481481481453
20
360
10
81.481481481481453
20
363
10
91.666666666666643
20
363
10
91.666666666666643
20
360
10
101.85185185185183
20
360
10
101.85185185185183
20
363
10
112.03703703703702
20
363
10
112.03703703703702
20
360
10
122.22222222222221
20
360
10
122.22222222222221
20
363
10
132.40740740740739
20
363
10
132.40740740740739
20
360
10
142.59259259259258
20
360
10
142.59259259259258
20
363
10
152.77777777777777
20
363
10
152.77777777777777
20
360
10
162.96296296296293
20
360
10
162.96296296296293
20
363
10
173.14814814814812
20
363
10
173.14814814814812
20
360
10
183.33333333333331
20
360
10
183.33333333333331
20
363
10
193.5185185185185
20
363
10
193.5185185185185
20
360
10
203.7037037037037
20
360
10
203.7037037037037
20
363
10
213.88888888888889
20
363
10
213.88888888888889
20
360
10
224.07407407407405
20
360
10
224.07407407407405
20
363
10
234.25925925925924
20
363
10
234.25925925925924
20
360
10
244.44444444444443
20
360
10
244.44444444444443
20
363
10
254.62962962962962
20
363
10
254.62962962962962
20
360
0
ENDSEC
0
SECTION
2
OBJECTS
0
DICTIONARY
5
C
100
AcDbDictionary
3
ACAD_GROUP
350
D
3
ACAD_MLINESTYLE
350
17
0
DICTIONARY
5
D
100
AcDbDictionary
0
DICTIONARY
5
1A
330
C
100
AcDbDictionary
0
DICTIONARY
5
17
100
AcDbDictionary
0
ENDSEC
0
EOF
