0
SECTION
2
HEADER
9
$INSUNITS
70
4
9
$ACADVER
1
AC1014
9
$HANDSEED
5
FFFF
0
ENDSEC
0
SECTION
2
TABLES
0
TABLE
2
VPORT
5
8
100
AcDbSymbolTable
0
ENDTAB
0
TABLE
2
LTYPE
5
5
100
AcDbSymbolTable
0
LTYPE
5
14
100
AcDbSymbolTableRecord
100
AcDbLinetypeTableRecord
2
BYBLOCK
70
0
0
LTYPE
5
15
100
AcDbSymbolTableRecord
100
AcDbLinetypeTableRecord
2
BYLAYER
70
0
0
ENDTAB
0
TABLE
2
LAYER
5
2
100
AcDbSymbolTable
70
2
0
LAYER
5
50
100
AcDbSymbolTableRecord
100
AcDbLayerTableRecord
2
0
70
0
6
CONTINUOUS
0
ENDTAB
0
TABLE
2
STYLE
5
3
100
AcDbSymbolTable
70
1
0
STYLE
5
11
100
AcDbSymbolTableRecord
100
AcDbTextStyleTableRecord
2
STANDARD
70
0
0
ENDTAB
0
TABLE
2
VIEW
5
6
100
AcDbSymbolTable
70
0
0
ENDTAB
0
TABLE
2
UCS
5
7
100
AcDbSymbolTable
70
0
0
ENDTAB
0
TABLE
2
APPID
5
9
100
AcDbSymbolTable
70
2
0
APPID
5
12
100
AcDbSymbolTableRecord
100
AcDbRegAppTableRecord
2
ACAD
70
0
0
ENDTAB
0
TABLE
2
DIMSTYLE
5
A
100
AcDbSymbolTable
70
1
0
ENDTAB
0
TABLE
2
BLOCK_RECORD
5
1
100
AcDbSymbolTable
70
1
0
BLOCK_RECORD
5
1F
100
AcDbSymbolTableRecord
100
AcDbBlockTableRecord
2
*MODEL_SPACE
0
BLOCK_RECORD
5
1B
100
AcDbSymbolTableRecord
100
AcDbBlockTableRecord
2
*PAPER_SPACE
0
ENDTAB
0
ENDSEC
0
SECTION
2
BLOCKS
0
BLOCK
5
20
100
AcDbEntity
100
AcDbBlockBegin
2
*MODEL_SPACE
0
ENDBLK
5
21
100
AcDbEntity
100
AcDbBlockEnd
0
BLOCK
5
1C
100
AcDbEntity
100
AcDbBlockBegin
2
*PAPER_SPACE
0
ENDBLK
5
1D
100
AcDbEntity
100
AcDbBlockEnd
0
ENDSEC
0
SECTION
2
ENTITIES
0
LWPOLYLINE
5
100
100
AcDbEntity
8
0
100
AcDbPolyline
90
83
70
1
43
0.0
10
-11.000000099442403
20
363.00000242888927
10
-11.000000149011612
20
360
10
-7.0000000745058122
20
360
10
-7.0000000249366021
20
363.00000242888927
10
-3.0000000000000004
20
363
10
-3.0000000000000004
20
352.33333560029666
10
0
20
352.33333560029666
10
0
20
341.666668771704
10
-3.0000000000000004
20
341.666668771704
10
-3.0000000000000004
20
331.00000194311144
10
0
20
331.00000194311144
10
0
20
320.33333511451877
10
-3.0000000000000004
20
320.33333511451877
10
-3.0000000000000004
20
309.66666828592616
10
0
20
309.66666828592616
10
0
20
299.00000145733361
10
-3.0000000000000004
20
299.00000145733361
10
-3.0000000000000004
20
288.33333462874094
10
0
20
288.33333462874094
10
0
20
277.66666780014833
10
-3.0000000000000004
20
277.66666780014833
10
-3.0000000000000004
20
267.00000097155572
10
0
20
267.00000097155572
10
0
20
256.33333414296311
10
-3.0000000000000004
20
256.33333414296311
10
-3.0000000000000004
20
245.6666673143705
10
0
20
245.66666731437053
10
0
20
235.00000048577789
10
-3.0000000000000004
20
235.00000048577786
10
-3.0000000000000004
20
224.33333365718525
10
0
20
224.33333365718525
10
0
20
213.66666682859264
10
-3.0000000000000004
20
213.66666682859264
10
-3.0000000000000071
20
203
10
-10.416666666666679
20
203
10
-10.416666666666679
20
200
10
-20.833333333333321
20
200
10
-20.833333333333321
20
203
10
-31.25
20
203
10
-31.25
20
200
10
-41.666666666666679
20
200
10
-41.666666666666679
20
203
10
-52.083333333333321
20
203
10
-52.083333333333321
20
200
10
-62.5
20
200
10
-62.5
20
203
10
-72.916666666666643
20
203
10
-72.916666666666643
20
200
10
-83.333333333333357
20
200
10
-83.333333333333357
20
203
10
-93.750000000000014
20
203
10
-93.750000000000014
20
200
10
-104.16666666666669
20
200
10
-104.16666666666669
20
203
10
-114.58333333333336
20
203
10
-114.58333333333336
20
200
10
-125
20
200
10
-125
20
203
10
-135.41666666666669
20
203
10
-135.41666666666669
20
200
10
-145.83333333333334
20
200
10
-145.83333333333334
20
203
10
-156.25000000000003
20
203
10
-156.25000000000003
20
200
10
-166.66666666666669
20
200
10
-166.66666666666669
20
203
10
-177.08333333333331
20
203
10
-177.08333333333331
20
200
10
-187.5
20
200
10
-187.5
20
203
10
-197.91666666666663
20
203
10
-197.91666666666663
20
200
10
-208.33333333333337
20
200
10
-208.33333333333337
20
203
10
-218.75
20
203
10
-218.75
20
200
10
-229.16666666666669
20
200
10
-229.16666666666669
20
203
10
-239.58333333333331
20
203
10
-239.58333333333331
20
200
10
-250
20
200
10
-250
20
203
10
-150
20
363.00000242888927
0
LWPOLYLINE
5
101
100
AcDbEntity
8
0
100
AcDbPolyline
90
4
70
1
43
0.0
10
-12
20
210.8666668285926
10
-12
20
221.73333365718523
10
-15
20
221.7333336571852
10
-15
20
210.8666668285926
0
LWPOLYLINE
5
102
100
AcDbEntity
8
0
100
AcDbPolyline
90
4
70
1
43
0.0
10
-12
20
341.26666877170408
10
-12
20
352.13333560029668
10
-15
20
352.13333560029668
10
-15
20
341.26666877170408
0
LWPOLYLINE
5
103
100
AcDbEntity
8
0
100
AcDbPolyline
90
4
70
1
43
0.0
10
-12
20
308.66666828592622
10
-15
20
308.66666828592622
10
-15
20
297.80000145733356
10
-12
20
297.80000145733356
0
LWPOLYLINE
5
104
100
AcDbEntity
8
0
100
AcDbPolyline
90
4
70
1
43
0.0
10
-12
20
254.33333414296311
10
-12
20
265.20000097155571
10
-15
20
265.20000097155571
10
-15
20
254.33333414296311
0
LWPOLYLINE
5
105
100
AcDbEntity
8
0
100
AcDbPolyline
90
4
70
1
43
0.0
10
-12
20
286.93333462874097
10
-15
20
286.93333462874097
10
-15
20
276.06666780014837
10
-12
20
276.06666780014837
0
LWPOLYLINE
5
106
100
AcDbEntity
8
0
100
AcDbPolyline
90
4
70
1
43
0.0
10
-12
20
232.60000048577785
10
-12
20
243.46666731437045
10
-15
20
243.46666731437045
10
-15
20
232.60000048577785
0
LWPOLYLINE
5
107
100
AcDbEntity
8
0
100
AcDbPolyline
90
4
70
1
43
0.0
10
-12
20
330.40000194311148
10
-15
20
330.40000194311148
10
-15
20
319.53333511451882
10
-12
20
319.53333511451882
0
ENDSEC
0
SECTION
2
OBJECTS
0
DICTIONARY
5
C
100
AcDbDictionary
3
ACAD_GROUP
350
D
3
ACAD_MLINESTYLE
350
17
0
DICTIONARY
5
D
100
AcDbDictionary
0
DICTIONARY
5
1A
330
C
100
AcDbDictionary
0
DICTIONARY
5
17
100
AcDbDictionary
0
ENDSEC
0
EOF
