0
SECTION
2
HEADER
9
$INSUNITS
70
4
9
$ACADVER
1
AC1014
9
$HANDSEED
5
FFFF
0
ENDSEC
0
SECTION
2
TABLES
0
TABLE
2
VPORT
5
8
100
AcDbSymbolTable
0
ENDTAB
0
TABLE
2
LTYPE
5
5
100
AcDbSymbolTable
0
LTYPE
5
14
100
AcDbSymbolTableRecord
100
AcDbLinetypeTableRecord
2
BYBLOCK
70
0
0
LTYPE
5
15
100
AcDbSymbolTableRecord
100
AcDbLinetypeTableRecord
2
BYLAYER
70
0
0
ENDTAB
0
TABLE
2
LAYER
5
2
100
AcDbSymbolTable
70
2
0
LAYER
5
50
100
AcDbSymbolTableRecord
100
AcDbLayerTableRecord
2
0
70
0
6
CONTINUOUS
0
ENDTAB
0
TABLE
2
STYLE
5
3
100
AcDbSymbolTable
70
1
0
STYLE
5
11
100
AcDbSymbolTableRecord
100
AcDbTextStyleTableRecord
2
STANDARD
70
0
0
ENDTAB
0
TABLE
2
VIEW
5
6
100
AcDbSymbolTable
70
0
0
ENDTAB
0
TABLE
2
UCS
5
7
100
AcDbSymbolTable
70
0
0
ENDTAB
0
TABLE
2
APPID
5
9
100
AcDbSymbolTable
70
2
0
APPID
5
12
100
AcDbSymbolTableRecord
100
AcDbRegAppTableRecord
2
ACAD
70
0
0
ENDTAB
0
TABLE
2
DIMSTYLE
5
A
100
AcDbSymbolTable
70
1
0
ENDTAB
0
TABLE
2
BLOCK_RECORD
5
1
100
AcDbSymbolTable
70
1
0
BLOCK_RECORD
5
1F
100
AcDbSymbolTableRecord
100
AcDbBlockTableRecord
2
*MODEL_SPACE
0
BLOCK_RECORD
5
1B
100
AcDbSymbolTableRecord
100
AcDbBlockTableRecord
2
*PAPER_SPACE
0
ENDTAB
0
ENDSEC
0
SECTION
2
BLOCKS
0
BLOCK
5
20
100
AcDbEntity
100
AcDbBlockBegin
2
*MODEL_SPACE
0
ENDBLK
5
21
100
AcDbEntity
100
AcDbBlockEnd
0
BLOCK
5
1C
100
AcDbEntity
100
AcDbBlockBegin
2
*PAPER_SPACE
0
ENDBLK
5
1D
100
AcDbEntity
100
AcDbBlockEnd
0
ENDSEC
0
SECTION
2
ENTITIES
0
LWPOLYLINE
5
100
100
AcDbEntity
8
0
100
AcDbPolyline
90
4
70
1
43
0.0
10
-252.5
20
223
10
-22.5
20
223
10
-22.5
20
328
10
-252.5
20
328
0
LWPOLYLINE
5
101
100
AcDbEntity
8
0
100
AcDbPolyline
90
156
70
1
43
0.0
10
-13.760000000000012
20
360
10
-13.760000000000012
20
363
10
-3.0000000000000004
20
363.00000242888927
10
-3.0000000000000071
20
352.13333560029668
10
0
20
352.13333560029668
10
0
20
341.26666877170408
10
-3.0000000000000071
20
341.26666877170408
10
-3.0000000000000071
20
330.40000194311148
10
0
20
330.40000194311148
10
0
20
319.53333511451882
10
-3.0000000000000071
20
319.53333511451882
10
-3.0000000000000071
20
308.66666828592622
10
0
20
308.66666828592622
10
0
20
297.80000145733356
10
-3.0000000000000071
20
297.80000145733356
10
-3.0000000000000071
20
286.93333462874097
10
0
20
286.93333462874097
10
0
20
276.06666780014837
10
-3.0000000000000071
20
276.06666780014837
10
-3.0000000000000071
20
265.20000097155571
10
0
20
265.20000097155571
10
0
20
254.33333414296311
10
-3.0000000000000071
20
254.33333414296305
10
-3.0000000000000071
20
243.46666731437045
10
0
20
243.46666731437045
10
0
20
232.60000048577785
10
-3.0000000000000071
20
232.60000048577785
10
-3.0000000000000071
20
221.73333365718523
10
0
20
221.7333336571852
10
0
20
210.8666668285926
10
-3.0000000000000071
20
210.8666668285926
10
-3.0000000000000004
20
200
10
-13.760000000000012
20
200
10
-13.760000000000012
20
203
10
-24.520000000000017
20
203
10
-24.520000000000017
20
200
10
-35.279999999999987
20
200
10
-35.279999999999987
20
203
10
-46.039999999999992
20
203
10
-46.039999999999992
20
200
10
-56.799999999999997
20
200
10
-56.799999999999997
20
203
10
-67.560000000000002
20
203
10
-67.560000000000002
20
200
10
-78.320000000000007
20
200
10
-78.320000000000007
20
203
10
-89.080000000000013
20
203
10
-89.080000000000013
20
200
10
-99.840000000000018
20
200
10
-99.840000000000018
20
203
10
-110.60000000000002
20
203
10
-110.60000000000002
20
200
10
-121.36000000000001
20
200
10
-121.36000000000001
20
203
10
-132.12
20
203
10
-132.12
20
200
10
-142.88
20
200
10
-142.88
20
203
10
-153.64000000000001
20
203
10
-153.64000000000001
20
200
10
-164.40000000000001
20
200
10
-164.40000000000001
20
203
10
-175.16000000000003
20
203
10
-175.16000000000003
20
200
10
-185.92000000000002
20
200
10
-185.92000000000002
20
203
10
-196.68000000000004
20
203
10
-196.68000000000004
20
200
10
-207.44
20
200
10
-207.44
20
203
10
-218.19999999999999
20
203
10
-218.19999999999999
20
200
10
-228.96000000000001
20
200
10
-228.96000000000001
20
203
10
-239.72000000000003
20
203
10
-239.72000000000003
20
200
10
-250.48000000000002
20
200
10
-250.48000000000002
20
203
10
-261.24000000000001
20
203
10
-261.24000000000001
20
200
10
-272
20
200
10
-272
20
210.8666668285926
10
-275
20
210.86666682859257
10
-275
20
221.7333336571852
10
-272
20
221.7333336571852
10
-272
20
232.60000048577783
10
-275
20
232.60000048577783
10
-275
20
243.46666731437045
10
-272
20
243.46666731437045
10
-272
20
254.33333414296305
10
-275
20
254.33333414296305
10
-275
20
265.20000097155571
10
-272
20
265.20000097155571
10
-272
20
276.06666780014831
10
-275
20
276.06666780014831
10
-275
20
286.93333462874091
10
-272
20
286.93333462874091
10
-272
20
297.80000145733356
10
-275
20
297.80000145733356
10
-275
20
308.66666828592616
10
-272
20
308.66666828592616
10
-272
20
319.53333511451882
10
-275
20
319.53333511451882
10
-275
20
330.40000194311142
10
-272
20
330.40000194311148
10
-272
20
341.26666877170408
10
-275
20
341.26666877170408
10
-275
20
352.13333560029668
10
-272
20
352.13333560029662
10
-272
20
363
10
-261.24000000000001
20
363
10
-261.24000000000001
20
360
10
-250.48000000000002
20
360
10
-250.48000000000002
20
363
10
-239.72000000000003
20
363
10
-239.72000000000003
20
360
10
-228.96000000000004
20
360
10
-228.96000000000004
20
363
10
-218.20000000000005
20
363
10
-218.20000000000005
20
360
10
-207.44000000000003
20
360
10
-207.44000000000003
20
363
10
-196.68000000000004
20
363
10
-196.68000000000004
20
360
10
-185.92000000000002
20
360
10
-185.92000000000002
20
363
10
-175.16000000000003
20
363
10
-175.16000000000003
20
360
10
-164.40000000000001
20
360
10
-164.40000000000001
20
363
10
-153.64000000000001
20
363
10
-153.64000000000001
20
360
10
-142.88000000000002
20
360
10
-142.88000000000002
20
363
10
-132.12
20
363
10
-132.12
20
360
10
-121.36000000000003
20
360
10
-121.36000000000003
20
363
10
-110.60000000000002
20
363
10
-110.60000000000002
20
360
10
-99.840000000000018
20
360
10
-99.840000000000018
20
363
10
-89.080000000000013
20
363
10
-89.080000000000013
20
360
10
-78.320000000000022
20
360
10
-78.320000000000007
20
363
10
-67.560000000000002
20
363
10
-67.560000000000016
20
360
10
-56.800000000000011
20
360
10
-56.799999999999997
20
363
10
-46.039999999999992
20
363
10
-46.040000000000006
20
360
10
-35.280000000000022
20
360
10
-35.280000000000022
20
363
10
-24.520000000000017
20
363
10
-24.520000000000017
20
360
0
ENDSEC
0
SECTION
2
OBJECTS
0
DICTIONARY
5
C
100
AcDbDictionary
3
ACAD_GROUP
350
D
3
ACAD_MLINESTYLE
350
17
0
DICTIONARY
5
D
100
AcDbDictionary
0
DICTIONARY
5
1A
330
C
100
AcDbDictionary
0
DICTIONARY
5
17
100
AcDbDictionary
0
ENDSEC
0
EOF
