0
SECTION
2
HEADER
9
$INSUNITS
70
4
9
$ACADVER
1
AC1014
9
$HANDSEED
5
FFFF
0
ENDSEC
0
SECTION
2
TABLES
0
TABLE
2
VPORT
5
8
100
AcDbSymbolTable
0
ENDTAB
0
TABLE
2
LTYPE
5
5
100
AcDbSymbolTable
0
LTYPE
5
14
100
AcDbSymbolTableRecord
100
AcDbLinetypeTableRecord
2
BYBLOCK
70
0
0
LTYPE
5
15
100
AcDbSymbolTableRecord
100
AcDbLinetypeTableRecord
2
BYLAYER
70
0
0
ENDTAB
0
TABLE
2
LAYER
5
2
100
AcDbSymbolTable
70
2
0
LAYER
5
50
100
AcDbSymbolTableRecord
100
AcDbLayerTableRecord
2
0
70
0
6
CONTINUOUS
0
ENDTAB
0
TABLE
2
STYLE
5
3
100
AcDbSymbolTable
70
1
0
STYLE
5
11
100
AcDbSymbolTableRecord
100
AcDbTextStyleTableRecord
2
STANDARD
70
0
0
ENDTAB
0
TABLE
2
VIEW
5
6
100
AcDbSymbolTable
70
0
0
ENDTAB
0
TABLE
2
UCS
5
7
100
AcDbSymbolTable
70
0
0
ENDTAB
0
TABLE
2
APPID
5
9
100
AcDbSymbolTable
70
2
0
APPID
5
12
100
AcDbSymbolTableRecord
100
AcDbRegAppTableRecord
2
ACAD
70
0
0
ENDTAB
0
TABLE
2
DIMSTYLE
5
A
100
AcDbSymbolTable
70
1
0
ENDTAB
0
TABLE
2
BLOCK_RECORD
5
1
100
AcDbSymbolTable
70
1
0
BLOCK_RECORD
5
1F
100
AcDbSymbolTableRecord
100
AcDbBlockTableRecord
2
*MODEL_SPACE
0
BLOCK_RECORD
5
1B
100
AcDbSymbolTableRecord
100
AcDbBlockTableRecord
2
*PAPER_SPACE
0
ENDTAB
0
ENDSEC
0
SECTION
2
BLOCKS
0
BLOCK
5
20
100
AcDbEntity
100
AcDbBlockBegin
2
*MODEL_SPACE
0
ENDBLK
5
21
100
AcDbEntity
100
AcDbBlockEnd
0
BLOCK
5
1C
100
AcDbEntity
100
AcDbBlockBegin
2
*PAPER_SPACE
0
ENDBLK
5
1D
100
AcDbEntity
100
AcDbBlockEnd
0
ENDSEC
0
SECTION
2
ENTITIES
0
LWPOLYLINE
5
100
100
AcDbEntity
8
0
100
AcDbPolyline
90
124
70
1
43
0.0
10
63.000000000000007
20
-101.00000000000001
10
63.000000000000007
20
-98
10
58.000000000000007
20
-98
10
58.000000000000007
20
-101.00000000000001
10
53.000000000000007
20
-101.00000000000001
10
53.000000000000007
20
-98
10
48.000000000000007
20
-98
10
48.000000000000007
20
-101.00000000000001
10
43.000000000000007
20
-101.00000000000001
10
43.000000000000007
20
-98
10
38.000000000000007
20
-98
10
38.000000000000007
20
-101.00000000000001
10
33.000000000000007
20
-101.00000000000001
10
33.000000000000007
20
-98
10
28.000000000000007
20
-98
10
28.000000000000007
20
-101.00000000000001
10
23.000000000000007
20
-101.00000000000001
10
23.000000000000007
20
-98
10
18.000000000000007
20
-98
10
18.000000000000007
20
-101.00000000000001
10
13.000000000000007
20
-101.00000000000001
10
13.000000000000007
20
-98
10
8.0000000000000071
20
-98
10
8.0000000000000071
20
-101.00000000000001
10
3.0000000000000004
20
-101.00000000000001
10
3.0000000000000004
20
-95.684210526315795
10
0
20
-95.684210526315795
10
0
20
-90.368421052631589
10
3.0000000000000004
20
-90.368421052631589
10
3.0000000000000004
20
-85.052631578947384
10
0
20
-85.052631578947384
10
0
20
-79.736842105263165
10
3.0000000000000004
20
-79.736842105263165
10
3.0000000000000004
20
-74.421052631578959
10
0
20
-74.421052631578959
10
0
20
-69.10526315789474
10
3.0000000000000004
20
-69.10526315789474
10
3.0000000000000004
20
-63.789473684210527
10
0
20
-63.789473684210527
10
0
20
-58.473684210526322
10
3.0000000000000004
20
-58.473684210526322
10
3.0000000000000004
20
-53.15789473684211
10
0
20
-53.15789473684211
10
0
20
-47.842105263157897
10
3.0000000000000004
20
-47.842105263157897
10
3.0000000000000004
20
-42.526315789473685
10
0
20
-42.526315789473685
10
0
20
-37.21052631578948
10
3.0000000000000004
20
-37.21052631578948
10
3.0000000000000004
20
-31.89473684210526
10
0
20
-31.89473684210526
10
0
20
-26.578947368421055
10
3.0000000000000004
20
-26.578947368421055
10
3.0000000000000004
20
-21.263157894736835
10
0
20
-21.263157894736835
10
0
20
-15.94736842105263
10
3.0000000000000004
20
-15.94736842105263
10
3.0000000000000004
20
-10.631578947368432
10
0
20
-10.631578947368432
10
0
20
-5.3157894736841982
10
3.0000000000000004
20
-5.3157894736841982
10
3.0000000000000004
20
0
10
8.2307692307692317
20
0
10
8.2307692307692299
20
-2.9999999999999982
10
13.46153846153846
20
-2.9999999999999982
10
13.461538461538463
20
0
10
18.692307692307693
20
0
10
18.692307692307693
20
-2.9999999999999982
10
23.923076923076927
20
-2.9999999999999982
10
23.923076923076927
20
0
10
29.153846153846157
20
0
10
29.153846153846157
20
-2.9999999999999982
10
34.384615384615387
20
-2.9999999999999982
10
34.384615384615387
20
0
10
39.615384615384613
20
0
10
39.615384615384613
20
-2.9999999999999982
10
44.846153846153847
20
-2.9999999999999982
10
44.846153846153847
20
0
10
50.07692307692308
20
0
10
50.07692307692308
20
-2.9999999999999982
10
55.307692307692307
20
-2.9999999999999982
10
55.307692307692307
20
0
10
60.538461538461533
20
0
10
60.538461538461533
20
-2.9999999999999982
10
65.769230769230774
20
-2.9999999999999982
10
65.769230769230774
20
0
10
68
20
0
10
68
20
-5.3157894736842115
10
71
20
-5.3157894736842115
10
71
20
-10.631578947368423
10
68
20
-10.631578947368423
10
68
20
-15.947368421052634
10
71
20
-15.947368421052634
10
71
20
-21.263157894736846
10
68
20
-21.263157894736846
10
68
20
-26.578947368421062
10
71
20
-26.578947368421062
10
71
20
-31.894736842105267
10
68
20
-31.894736842105267
10
68
20
-37.210526315789487
10
71
20
-37.210526315789487
10
71
20
-42.526315789473692
10
68
20
-42.526315789473692
10
68
20
-47.842105263157904
10
71
20
-47.842105263157904
10
71
20
-53.157894736842117
10
68
20
-53.157894736842117
10
68
20
-58.473684210526329
10
71
20
-58.473684210526329
10
71
20
-63.789473684210535
10
68
20
-63.789473684210535
10
68
20
-69.105263157894754
10
71
20
-69.105263157894754
10
71
20
-74.421052631578959
10
68
20
-74.421052631578959
10
68
20
-79.736842105263179
10
71
20
-79.736842105263179
10
71
20
-85.052631578947384
10
68
20
-85.052631578947384
10
68
20
-90.368421052631589
10
71
20
-90.368421052631589
10
71
20
-95.684210526315809
10
68
20
-95.684210526315809
10
68
20
-101.00000000000001
0
ENDSEC
0
SECTION
2
OBJECTS
0
DICTIONARY
5
C
100
AcDbDictionary
3
ACAD_GROUP
350
D
3
ACAD_MLINESTYLE
350
17
0
DICTIONARY
5
D
100
AcDbDictionary
0
DICTIONARY
5
1A
330
C
100
AcDbDictionary
0
DICTIONARY
5
17
100
AcDbDictionary
0
ENDSEC
0
EOF
