0
SECTION
2
HEADER
9
$INSUNITS
70
4
9
$ACADVER
1
AC1014
9
$HANDSEED
5
FFFF
0
ENDSEC
0
SECTION
2
TABLES
0
TABLE
2
VPORT
5
8
100
AcDbSymbolTable
0
ENDTAB
0
TABLE
2
LTYPE
5
5
100
AcDbSymbolTable
0
LTYPE
5
14
100
AcDbSymbolTableRecord
100
AcDbLinetypeTableRecord
2
BYBLOCK
70
0
0
LTYPE
5
15
100
AcDbSymbolTableRecord
100
AcDbLinetypeTableRecord
2
BYLAYER
70
0
0
ENDTAB
0
TABLE
2
LAYER
5
2
100
AcDbSymbolTable
70
2
0
LAYER
5
50
100
AcDbSymbolTableRecord
100
AcDbLayerTableRecord
2
0
70
0
6
CONTINUOUS
0
ENDTAB
0
TABLE
2
STYLE
5
3
100
AcDbSymbolTable
70
1
0
STYLE
5
11
100
AcDbSymbolTableRecord
100
AcDbTextStyleTableRecord
2
STANDARD
70
0
0
ENDTAB
0
TABLE
2
VIEW
5
6
100
AcDbSymbolTable
70
0
0
ENDTAB
0
TABLE
2
UCS
5
7
100
AcDbSymbolTable
70
0
0
ENDTAB
0
TABLE
2
APPID
5
9
100
AcDbSymbolTable
70
2
0
APPID
5
12
100
AcDbSymbolTableRecord
100
AcDbRegAppTableRecord
2
ACAD
70
0
0
ENDTAB
0
TABLE
2
DIMSTYLE
5
A
100
AcDbSymbolTable
70
1
0
ENDTAB
0
TABLE
2
BLOCK_RECORD
5
1
100
AcDbSymbolTable
70
1
0
BLOCK_RECORD
5
1F
100
AcDbSymbolTableRecord
100
AcDbBlockTableRecord
2
*MODEL_SPACE
0
BLOCK_RECORD
5
1B
100
AcDbSymbolTableRecord
100
AcDbBlockTableRecord
2
*PAPER_SPACE
0
ENDTAB
0
ENDSEC
0
SECTION
2
BLOCKS
0
BLOCK
5
20
100
AcDbEntity
100
AcDbBlockBegin
2
*MODEL_SPACE
0
ENDBLK
5
21
100
AcDbEntity
100
AcDbBlockEnd
0
BLOCK
5
1C
100
AcDbEntity
100
AcDbBlockBegin
2
*PAPER_SPACE
0
ENDBLK
5
1D
100
AcDbEntity
100
AcDbBlockEnd
0
ENDSEC
0
SECTION
2
ENTITIES
0
LWPOLYLINE
5
100
100
AcDbEntity
8
0
100
AcDbPolyline
90
4
70
1
43
0.0
10
12
20
352.13333560029668
10
12
20
341.26666877170408
10
15
20
341.26666877170408
10
15
20
352.13333560029668
0
LWPOLYLINE
5
101
100
AcDbEntity
8
0
100
AcDbPolyline
90
4
70
1
43
0.0
10
12
20
221.73333365718523
10
12
20
210.8666668285926
10
15
20
210.86666682859257
10
15
20
221.7333336571852
0
LWPOLYLINE
5
102
100
AcDbEntity
8
0
100
AcDbPolyline
90
4
70
1
43
0.0
10
12
20
254.33333414296305
10
15
20
254.33333414296305
10
15
20
265.20000097155571
10
12
20
265.20000097155571
0
LWPOLYLINE
5
103
100
AcDbEntity
8
0
100
AcDbPolyline
90
4
70
1
43
0.0
10
12
20
308.66666828592616
10
12
20
297.80000145733356
10
15
20
297.80000145733356
10
15
20
308.66666828592616
0
LWPOLYLINE
5
104
100
AcDbEntity
8
0
100
AcDbPolyline
90
4
70
1
43
0.0
10
12
20
276.06666780014831
10
15
20
276.06666780014831
10
15
20
286.93333462874091
10
12
20
286.93333462874091
0
LWPOLYLINE
5
105
100
AcDbEntity
8
0
100
AcDbPolyline
90
4
70
1
43
0.0
10
12
20
330.40000194311142
10
12
20
319.53333511451882
10
15
20
319.53333511451882
10
15
20
330.40000194311142
0
LWPOLYLINE
5
106
100
AcDbEntity
8
0
100
AcDbPolyline
90
4
70
1
43
0.0
10
12
20
232.60000048577783
10
15
20
232.60000048577783
10
15
20
243.46666731437045
10
12
20
243.46666731437045
0
LWPOLYLINE
5
107
100
AcDbEntity
8
0
100
AcDbPolyline
90
83
70
1
43
0.0
10
11.000000182057747
20
360
10
11.000000132488541
20
363.00000242888927
10
150
20
363.00000242888927
10
250.0000037252903
20
203.00000004470348
10
250.0000037252903
20
200
10
239.58333690340322
20
200
10
239.58333690340322
20
203
10
229.16667008151609
20
203
10
229.16667008151609
20
200
10
218.75000325962901
20
200
10
218.75000325962901
20
203
10
208.33333643774188
20
203
10
208.33333643774188
20
200
10
197.91666961585486
20
200
10
197.91666961585486
20
203
10
187.50000279396772
20
203
10
187.50000279396772
20
200
10
177.08333597208065
20
200
10
177.08333597208065
20
203
10
166.66666915019351
20
203
10
166.66666915019351
20
200
10
156.25000232830641
20
200
10
156.25000232830641
20
203
10
145.83333550641933
20
203
10
145.83333550641933
20
200
10
135.41666868453223
20
200
10
135.41666868453223
20
203
10
125.00000186264515
20
203
10
125.00000186264515
20
200
10
114.58333504075803
20
200
10
114.58333504075803
20
203
10
104.16666821887094
20
203
10
104.16666821887094
20
200
10
93.750001396983848
20
200
10
93.750001396983848
20
203
10
83.333334575096757
20
203
10
83.333334575096757
20
200
10
72.91666775320968
20
200
10
72.91666775320968
20
203
10
62.500000931322575
20
203
10
62.500000931322575
20
200
10
52.083334109435484
20
200
10
52.083334109435484
20
203
10
41.666667287548378
20
203
10
41.666667287548378
20
200
10
31.250000465661284
20
200
10
31.250000465661284
20
203
10
20.833333643774189
20
203
10
20.833333643774189
20
200
10
10.416666821887095
20
200
10
10.416666821887095
20
203
10
3.0000000000000004
20
203
10
3.0000000000000071
20
213.66666666666669
10
0
20
213.66666666666669
10
0
20
224.33333333333334
10
3.0000000000000071
20
224.33333333333334
10
3.0000000000000071
20
235
10
0
20
235
10
0
20
245.66666666666666
10
3.0000000000000071
20
245.66666666666666
10
3.0000000000000071
20
256.33333333333331
10
0
20
256.33333333333331
10
0
20
267
10
3.0000000000000071
20
266.99999999999994
10
3.0000000000000071
20
277.66666666666663
10
0
20
277.66666666666669
10
0
20
288.33333333333337
10
3.0000000000000071
20
288.33333333333331
10
3.0000000000000071
20
299
10
0
20
299
10
0
20
309.66666666666669
10
3.0000000000000071
20
309.66666666666663
10
3.0000000000000071
20
320.33333333333331
10
0
20
320.33333333333331
10
0
20
331
10
3.0000000000000071
20
331
10
3.0000000000000071
20
341.66666666666674
10
0
20
341.66666666666674
10
0
20
352.33333333333337
10
3.0000000000000071
20
352.33333333333337
10
3.0000000000000004
20
363
10
7.0000000414596677
20
363.00000242888927
10
7.0000000910288795
20
360
0
ENDSEC
0
SECTION
2
OBJECTS
0
DICTIONARY
5
C
100
AcDbDictionary
3
ACAD_GROUP
350
D
3
ACAD_MLINESTYLE
350
17
0
DICTIONARY
5
D
100
AcDbDictionary
0
DICTIONARY
5
1A
330
C
100
AcDbDictionary
0
DICTIONARY
5
17
100
AcDbDictionary
0
ENDSEC
0
EOF
