0
SECTION
2
HEADER
9
$INSUNITS
70
4
9
$ACADVER
1
AC1014
9
$HANDSEED
5
FFFF
0
ENDSEC
0
SECTION
2
TABLES
0
TABLE
2
VPORT
5
8
100
AcDbSymbolTable
0
ENDTAB
0
TABLE
2
LTYPE
5
5
100
AcDbSymbolTable
0
LTYPE
5
14
100
AcDbSymbolTableRecord
100
AcDbLinetypeTableRecord
2
BYBLOCK
70
0
0
LTYPE
5
15
100
AcDbSymbolTableRecord
100
AcDbLinetypeTableRecord
2
BYLAYER
70
0
0
ENDTAB
0
TABLE
2
LAYER
5
2
100
AcDbSymbolTable
70
2
0
LAYER
5
50
100
AcDbSymbolTableRecord
100
AcDbLayerTableRecord
2
0
70
0
6
CONTINUOUS
0
ENDTAB
0
TABLE
2
STYLE
5
3
100
AcDbSymbolTable
70
1
0
STYLE
5
11
100
AcDbSymbolTableRecord
100
AcDbTextStyleTableRecord
2
STANDARD
70
0
0
ENDTAB
0
TABLE
2
VIEW
5
6
100
AcDbSymbolTable
70
0
0
ENDTAB
0
TABLE
2
UCS
5
7
100
AcDbSymbolTable
70
0
0
ENDTAB
0
TABLE
2
APPID
5
9
100
AcDbSymbolTable
70
2
0
APPID
5
12
100
AcDbSymbolTableRecord
100
AcDbRegAppTableRecord
2
ACAD
70
0
0
ENDTAB
0
TABLE
2
DIMSTYLE
5
A
100
AcDbSymbolTable
70
1
0
ENDTAB
0
TABLE
2
BLOCK_RECORD
5
1
100
AcDbSymbolTable
70
1
0
BLOCK_RECORD
5
1F
100
AcDbSymbolTableRecord
100
AcDbBlockTableRecord
2
*MODEL_SPACE
0
BLOCK_RECORD
5
1B
100
AcDbSymbolTableRecord
100
AcDbBlockTableRecord
2
*PAPER_SPACE
0
ENDTAB
0
ENDSEC
0
SECTION
2
BLOCKS
0
BLOCK
5
20
100
AcDbEntity
100
AcDbBlockBegin
2
*MODEL_SPACE
0
ENDBLK
5
21
100
AcDbEntity
100
AcDbBlockEnd
0
BLOCK
5
1C
100
AcDbEntity
100
AcDbBlockBegin
2
*PAPER_SPACE
0
ENDBLK
5
1D
100
AcDbEntity
100
AcDbBlockEnd
0
ENDSEC
0
SECTION
2
ENTITIES
0
LWPOLYLINE
5
100
100
AcDbEntity
8
0
100
AcDbPolyline
90
160
70
1
43
0.0
10
-113.00000168383121
20
-250.0000037252903
10
-113.00000168383121
20
-240.00000368058679
10
-116.0000017285347
20
-240.00000368058679
10
-116.00000168383121
20
-250
10
-272
20
-250.0000037252903
10
-272
20
-239.58333690340322
10
-275
20
-239.58333690340322
10
-275
20
-229.16667008151609
10
-272
20
-229.16667008151609
10
-272
20
-218.75000325962901
10
-275
20
-218.75000325962901
10
-275
20
-208.33333643774188
10
-272
20
-208.33333643774188
10
-272
20
-197.91666961585486
10
-275
20
-197.91666961585486
10
-275
20
-187.50000279396772
10
-272
20
-187.50000279396772
10
-272
20
-177.08333597208065
10
-275
20
-177.08333597208065
10
-275
20
-166.66666915019351
10
-272
20
-166.66666915019351
10
-272
20
-156.25000232830641
10
-275
20
-156.25000232830641
10
-275
20
-145.83333550641933
10
-272
20
-145.83333550641933
10
-272
20
-135.41666868453223
10
-275
20
-135.41666868453223
10
-275
20
-125.00000186264515
10
-272
20
-125.00000186264515
10
-272
20
-114.58333504075803
10
-275
20
-114.58333504075803
10
-275
20
-104.16666821887094
10
-272
20
-104.16666821887094
10
-272
20
-93.750001396983848
10
-275
20
-93.750001396983848
10
-275
20
-83.333334575096757
10
-272
20
-83.333334575096757
10
-272
20
-72.91666775320968
10
-275
20
-72.91666775320968
10
-275
20
-62.500000931322575
10
-272
20
-62.500000931322575
10
-272
20
-52.083334109435484
10
-275
20
-52.083334109435484
10
-275
20
-41.666667287548378
10
-272
20
-41.666667287548371
10
-272
20
-31.250000465661287
10
-275
20
-31.250000465661284
10
-275
20
-20.833333643774189
10
-272
20
-20.833333643774186
10
-272
20
-15
10
-261.24000000000001
20
-15
10
-261.24000000000001
20
-11.999999999999993
10
-272
20
-11.999999999999993
10
-272
20
-10.416666821887102
10
-275
20
-10.416666821887095
10
-275
20
-3.0000000000000004
10
-264.81481481481484
20
-3.0000000000000071
10
-264.81481481481484
20
-1.6617208883127794e-30
10
-254.62962962962965
20
0
10
-254.62962962962965
20
-3.0000000000000071
10
-244.44444444444446
20
-3.0000000000000071
10
-244.44444444444446
20
-1.5338962045964118e-30
10
-234.25925925925927
20
0
10
-234.25925925925927
20
-3.0000000000000071
10
-224.07407407407413
20
-3.0000000000000071
10
-224.07407407407413
20
-1.4060715208800442e-30
10
-213.88888888888891
20
0
10
-213.88888888888891
20
-3.0000000000000071
10
-203.70370370370375
20
-3.0000000000000071
10
-203.70370370370375
20
-1.2782468371636764e-30
10
-193.51851851851853
20
0
10
-193.51851851851853
20
-3.0000000000000071
10
-183.33333333333337
20
-3.0000000000000071
10
-183.33333333333337
20
-1.150422153447309e-30
10
-173.14814814814815
20
0
10
-173.14814814814815
20
-3.0000000000000071
10
-162.96296296296299
20
-3.0000000000000071
10
-162.96296296296299
20
-1.0225974697309412e-30
10
-152.77777777777777
20
0
10
-152.77777777777777
20
-3.0000000000000071
10
-142.59259259259261
20
-3.0000000000000071
10
-142.59259259259261
20
-8.9477278601457361e-31
10
-132.40740740740742
20
0
10
-132.40740740740742
20
-3.0000000000000071
10
-122.22222222222226
20
-3.0000000000000071
10
-122.22222222222226
20
-7.66948102298206e-31
10
-112.03703703703707
20
0
10
-112.03703703703707
20
-3.0000000000000071
10
-101.85185185185188
20
-3.0000000000000071
10
-101.85185185185188
20
-6.3912341858183822e-31
10
-91.666666666666686
20
0
10
-91.666666666666686
20
-3.0000000000000071
10
-81.481481481481495
20
-3.0000000000000071
10
-81.481481481481495
20
-5.1129873486547061e-31
10
-71.296296296296305
20
0
10
-71.296296296296305
20
-3.0000000000000071
10
-61.111111111111128
20
-3.0000000000000071
10
-61.111111111111128
20
-3.83474051149103e-31
10
-50.925925925925938
20
0
10
-50.925925925925938
20
-3.0000000000000071
10
-40.740740740740748
20
-3.0000000000000071
10
-40.740740740740748
20
-2.556493674327353e-31
10
-30.555555555555554
20
0
10
-30.555555555555554
20
-3.0000000000000071
10
-20.370370370370381
20
-3.0000000000000071
10
-20.370370370370374
20
-1.2782468371636765e-31
10
-10.185185185185187
20
0
10
-10.18518518518519
20
-3.0000000000000071
10
0
20
-3.0000000000000004
10
0
20
-10.416666666666679
10
-3.0000000000000071
20
-10.416666666666661
10
-3.0000000000000071
20
-11.999999999999993
10
-13.760000000000012
20
-11.999999999999993
10
-13.760000000000012
20
-15
10
-3.0000000000000071
20
-15
10
-3.0000000000000071
20
-20.833333333333339
10
0
20
-20.833333333333321
10
0
20
-31.25
10
-3.0000000000000071
20
-31.25
10
-3.0000000000000071
20
-41.666666666666679
10
0
20
-41.666666666666679
10
0
20
-52.083333333333321
10
-3.0000000000000071
20
-52.083333333333329
10
-3.0000000000000071
20
-62.5
10
0
20
-62.5
10
0
20
-72.916666666666643
10
-3.0000000000000071
20
-72.916666666666657
10
-3.0000000000000071
20
-83.333333333333343
10
0
20
-83.333333333333357
10
0
20
-93.750000000000014
10
-3.0000000000000071
20
-93.750000000000014
10
-3.0000000000000071
20
-104.16666666666669
10
0
20
-104.16666666666669
10
0
20
-114.58333333333336
10
-3.0000000000000071
20
-114.58333333333336
10
-3.0000000000000071
20
-125
10
0
20
-125
10
0
20
-135.41666666666669
10
-3.0000000000000071
20
-135.41666666666669
10
-3.0000000000000071
20
-145.83333333333334
10
0
20
-145.83333333333334
10
0
20
-156.25000000000003
10
-3.0000000000000071
20
-156.25000000000003
10
-3.0000000000000071
20
-166.66666666666669
10
0
20
-166.66666666666669
10
0
20
-177.08333333333331
10
-3.0000000000000071
20
-177.08333333333331
10
-3.0000000000000071
20
-187.5
10
0
20
-187.5
10
0
20
-197.91666666666663
10
-3.0000000000000071
20
-197.91666666666663
10
-3.0000000000000071
20
-208.33333333333337
10
0
20
-208.33333333333337
10
0
20
-218.75
10
-3.0000000000000071
20
-218.75
10
-3.0000000000000071
20
-229.16666666666669
10
0
20
-229.16666666666669
10
0
20
-239.58333333333331
10
-3.0000000000000071
20
-239.58333333333331
10
-3.0000000000000071
20
-250
0
LWPOLYLINE
5
101
100
AcDbEntity
8
0
100
AcDbPolyline
90
4
70
1
43
0.0
10
-116.0000017285347
20
-230.00000363588333
10
-113.00000168383121
20
-230.00000363588333
10
-113.00000168383121
20
-220.00000359117985
10
-116.0000017285347
20
-220.00000359117985
0
LWPOLYLINE
5
102
100
AcDbEntity
8
0
100
AcDbPolyline
90
4
70
1
43
0.0
10
-116.0000017285347
20
-210.00000354647636
10
-113.00000168383121
20
-210.00000354647636
10
-113.00000168383121
20
-200.00000350177288
10
-116.0000017285347
20
-200.00000350177288
0
LWPOLYLINE
5
103
100
AcDbEntity
8
0
100
AcDbPolyline
90
4
70
1
43
0.0
10
-116.0000017285347
20
-190.0000034570694
10
-113.00000168383121
20
-190.0000034570694
10
-113.00000168383121
20
-180.00000341236591
10
-116.0000017285347
20
-180.00000341236591
0
LWPOLYLINE
5
104
100
AcDbEntity
8
0
100
AcDbPolyline
90
4
70
1
43
0.0
10
-116.0000017285347
20
-170.00000336766243
10
-113.00000168383121
20
-170.00000336766243
10
-113.00000168383121
20
-160.00000332295895
10
-116.0000017285347
20
-160.00000332295895
0
LWPOLYLINE
5
105
100
AcDbEntity
8
0
100
AcDbPolyline
90
4
70
1
43
0.0
10
-88
20
-163
10
-88
20
-220
10
-28.000000000000007
20
-220
10
-28.000000000000007
20
-163
0
LWPOLYLINE
5
106
100
AcDbEntity
8
0
100
AcDbPolyline
90
4
70
1
43
0.0
10
-250.48000000000002
20
-11.999999999999993
10
-250.48000000000002
20
-15
10
-239.72000000000003
20
-15
10
-239.72000000000003
20
-11.999999999999993
0
LWPOLYLINE
5
107
100
AcDbEntity
8
0
100
AcDbPolyline
90
4
70
1
43
0.0
10
-228.96000000000001
20
-11.999999999999993
10
-228.96000000000001
20
-15
10
-218.19999999999999
20
-15
10
-218.19999999999999
20
-11.999999999999993
0
LWPOLYLINE
5
108
100
AcDbEntity
8
0
100
AcDbPolyline
90
4
70
1
43
0.0
10
-207.44
20
-11.999999999999993
10
-207.44
20
-15
10
-196.68000000000004
20
-15
10
-196.68000000000004
20
-11.999999999999993
0
LWPOLYLINE
5
109
100
AcDbEntity
8
0
100
AcDbPolyline
90
4
70
1
43
0.0
10
-185.92000000000002
20
-11.999999999999993
10
-185.92000000000002
20
-15
10
-175.16000000000003
20
-15
10
-175.16000000000003
20
-11.999999999999993
0
LWPOLYLINE
5
110
100
AcDbEntity
8
0
100
AcDbPolyline
90
4
70
1
43
0.0
10
-164.40000000000001
20
-11.999999999999993
10
-164.40000000000001
20
-15
10
-153.64000000000001
20
-15
10
-153.64000000000001
20
-11.999999999999993
0
LWPOLYLINE
5
111
100
AcDbEntity
8
0
100
AcDbPolyline
90
4
70
1
43
0.0
10
-142.88
20
-11.999999999999993
10
-142.88
20
-15
10
-132.12
20
-15
10
-132.12
20
-11.999999999999993
0
LWPOLYLINE
5
112
100
AcDbEntity
8
0
100
AcDbPolyline
90
4
70
1
43
0.0
10
-121.36000000000001
20
-11.999999999999993
10
-121.36000000000001
20
-15
10
-110.60000000000002
20
-15
10
-110.60000000000002
20
-11.999999999999993
0
LWPOLYLINE
5
113
100
AcDbEntity
8
0
100
AcDbPolyline
90
4
70
1
43
0.0
10
-99.840000000000018
20
-11.999999999999993
10
-99.840000000000018
20
-15
10
-89.080000000000013
20
-15
10
-89.080000000000013
20
-11.999999999999993
0
LWPOLYLINE
5
114
100
AcDbEntity
8
0
100
AcDbPolyline
90
4
70
1
43
0.0
10
-78.320000000000007
20
-11.999999999999993
10
-78.320000000000007
20
-15
10
-67.560000000000002
20
-15
10
-67.560000000000002
20
-11.999999999999993
0
LWPOLYLINE
5
115
100
AcDbEntity
8
0
100
AcDbPolyline
90
4
70
1
43
0.0
10
-56.799999999999997
20
-11.999999999999993
10
-56.799999999999997
20
-15
10
-46.039999999999992
20
-15
10
-46.039999999999992
20
-11.999999999999993
0
LWPOLYLINE
5
116
100
AcDbEntity
8
0
100
AcDbPolyline
90
4
70
1
43
0.0
10
-24.520000000000017
20
-15
10
-24.520000000000017
20
-11.999999999999993
10
-35.279999999999987
20
-11.999999999999993
10
-35.279999999999987
20
-15
0
ENDSEC
0
SECTION
2
OBJECTS
0
DICTIONARY
5
C
100
AcDbDictionary
3
ACAD_GROUP
350
D
3
ACAD_MLINESTYLE
350
17
0
DICTIONARY
5
D
100
AcDbDictionary
0
DICTIONARY
5
1A
330
C
100
AcDbDictionary
0
DICTIONARY
5
17
100
AcDbDictionary
0
ENDSEC
0
EOF
