0
SECTION
2
HEADER
9
$INSUNITS
70
4
9
$ACADVER
1
AC1014
9
$HANDSEED
5
FFFF
0
ENDSEC
0
SECTION
2
TABLES
0
TABLE
2
VPORT
5
8
100
AcDbSymbolTable
0
ENDTAB
0
TABLE
2
LTYPE
5
5
100
AcDbSymbolTable
0
LTYPE
5
14
100
AcDbSymbolTableRecord
100
AcDbLinetypeTableRecord
2
BYBLOCK
70
0
0
LTYPE
5
15
100
AcDbSymbolTableRecord
100
AcDbLinetypeTableRecord
2
BYLAYER
70
0
0
ENDTAB
0
TABLE
2
LAYER
5
2
100
AcDbSymbolTable
70
2
0
LAYER
5
50
100
AcDbSymbolTableRecord
100
AcDbLayerTableRecord
2
0
70
0
6
CONTINUOUS
0
ENDTAB
0
TABLE
2
STYLE
5
3
100
AcDbSymbolTable
70
1
0
STYLE
5
11
100
AcDbSymbolTableRecord
100
AcDbTextStyleTableRecord
2
STANDARD
70
0
0
ENDTAB
0
TABLE
2
VIEW
5
6
100
AcDbSymbolTable
70
0
0
ENDTAB
0
TABLE
2
UCS
5
7
100
AcDbSymbolTable
70
0
0
ENDTAB
0
TABLE
2
APPID
5
9
100
AcDbSymbolTable
70
2
0
APPID
5
12
100
AcDbSymbolTableRecord
100
AcDbRegAppTableRecord
2
ACAD
70
0
0
ENDTAB
0
TABLE
2
DIMSTYLE
5
A
100
AcDbSymbolTable
70
1
0
ENDTAB
0
TABLE
2
BLOCK_RECORD
5
1
100
AcDbSymbolTable
70
1
0
BLOCK_RECORD
5
1F
100
AcDbSymbolTableRecord
100
AcDbBlockTableRecord
2
*MODEL_SPACE
0
BLOCK_RECORD
5
1B
100
AcDbSymbolTableRecord
100
AcDbBlockTableRecord
2
*PAPER_SPACE
0
ENDTAB
0
ENDSEC
0
SECTION
2
BLOCKS
0
BLOCK
5
20
100
AcDbEntity
100
AcDbBlockBegin
2
*MODEL_SPACE
0
ENDBLK
5
21
100
AcDbEntity
100
AcDbBlockEnd
0
BLOCK
5
1C
100
AcDbEntity
100
AcDbBlockBegin
2
*PAPER_SPACE
0
ENDBLK
5
1D
100
AcDbEntity
100
AcDbBlockEnd
0
ENDSEC
0
SECTION
2
ENTITIES
0
LWPOLYLINE
5
100
100
AcDbEntity
8
0
100
AcDbPolyline
90
112
70
1
43
0.0
10
-3.0000000000000004
20
-11.000000099442403
10
-3.0000000000000004
20
-12
10
-13.760000000000012
20
-12
10
-13.760000000000012
20
-15
10
-24.520000000000017
20
-15
10
-24.520000000000017
20
-12
10
-35.280000000000022
20
-12
10
-35.280000000000022
20
-15
10
-46.039999999999992
20
-15
10
-46.039999999999992
20
-12
10
-56.799999999999997
20
-12
10
-56.799999999999997
20
-15
10
-67.560000000000002
20
-15
10
-67.560000000000002
20
-12
10
-78.320000000000007
20
-12
10
-78.320000000000007
20
-15
10
-89.080000000000013
20
-15
10
-89.080000000000013
20
-12
10
-99.840000000000018
20
-12
10
-99.840000000000018
20
-15
10
-110.60000000000002
20
-15
10
-110.60000000000002
20
-12
10
-121.36000000000003
20
-12
10
-121.36000000000003
20
-15
10
-132.12
20
-15
10
-132.12
20
-12
10
-142.88000000000002
20
-12
10
-142.88000000000002
20
-15
10
-153.64000000000001
20
-15
10
-153.64000000000001
20
-12
10
-164.40000000000001
20
-12
10
-164.40000000000001
20
-15
10
-175.16000000000003
20
-15
10
-175.16000000000003
20
-12
10
-185.92000000000002
20
-12
10
-185.92000000000002
20
-15
10
-196.68000000000004
20
-15
10
-196.68000000000004
20
-12
10
-207.44000000000003
20
-12
10
-207.44000000000003
20
-15
10
-218.20000000000005
20
-15
10
-218.20000000000005
20
-12
10
-228.96000000000004
20
-12
10
-228.96000000000004
20
-15
10
-239.72000000000003
20
-15
10
-239.72000000000003
20
-12
10
-250.48000000000002
20
-12
10
-250.48000000000002
20
-15
10
-261.24000000000001
20
-15
10
-261.24000000000001
20
-12
10
-272
20
-12
10
-272
20
-11.000000132488541
10
-275.00000409781933
20
-11.000000132488541
10
-275
20
-7.0000000414597086
10
-272
20
-7.0000000414596677
10
-272
20
-3.0000000000000004
10
-264.81481481481478
20
-3.0000000000000004
10
-264.81481481481478
20
0
10
-254.62962962962962
20
0
10
-254.62962962962962
20
-3.0000000000000004
10
-244.44444444444443
20
-3.0000000000000004
10
-244.44444444444443
20
0
10
-234.25925925925924
20
0
10
-234.25925925925924
20
-3.0000000000000004
10
-224.07407407407405
20
-3.0000000000000004
10
-224.07407407407405
20
0
10
-213.88888888888889
20
0
10
-213.88888888888889
20
-3.0000000000000004
10
-203.7037037037037
20
-3.0000000000000004
10
-203.7037037037037
20
0
10
-193.5185185185185
20
0
10
-193.5185185185185
20
-3.0000000000000004
10
-183.33333333333331
20
-3.0000000000000004
10
-183.33333333333331
20
0
10
-173.14814814814812
20
0
10
-173.14814814814812
20
-3.0000000000000004
10
-162.96296296296293
20
-3.0000000000000004
10
-162.96296296296293
20
0
10
-152.77777777777777
20
0
10
-152.77777777777777
20
-3.0000000000000004
10
-142.59259259259258
20
-3.0000000000000004
10
-142.59259259259258
20
0
10
-132.40740740740739
20
0
10
-132.40740740740739
20
-3.0000000000000004
10
-122.22222222222221
20
-3.0000000000000004
10
-122.22222222222221
20
0
10
-112.03703703703702
20
0
10
-112.03703703703702
20
-3.0000000000000004
10
-101.85185185185183
20
-3.0000000000000004
10
-101.85185185185183
20
0
10
-91.666666666666643
20
0
10
-91.666666666666643
20
-3.0000000000000004
10
-81.481481481481453
20
-3.0000000000000004
10
-81.481481481481453
20
0
10
-71.296296296296262
20
0
10
-71.296296296296262
20
-3.0000000000000004
10
-61.111111111111072
20
-3.0000000000000004
10
-61.111111111111072
20
0
10
-50.925925925925917
20
0
10
-50.925925925925917
20
-3.0000000000000004
10
-40.740740740740726
20
-3.0000000000000004
10
-40.740740740740726
20
0
10
-30.555555555555536
20
0
10
-30.555555555555536
20
-3.0000000000000004
10
-20.370370370370345
20
-3.0000000000000004
10
-20.370370370370345
20
0
10
-10.185185185185155
20
0
10
-10.185185185185155
20
-3.0000000000000004
10
-3.0000000000000004
20
-3.0000000000000004
10
-3.0000000000000004
20
-7.0000000249366021
10
0
20
-7.0000000249366021
10
0
20
-11.000000099442403
0
ENDSEC
0
SECTION
2
OBJECTS
0
DICTIONARY
5
C
100
AcDbDictionary
3
ACAD_GROUP
350
D
3
ACAD_MLINESTYLE
350
17
0
DICTIONARY
5
D
100
AcDbDictionary
0
DICTIONARY
5
1A
330
C
100
AcDbDictionary
0
DICTIONARY
5
17
100
AcDbDictionary
0
ENDSEC
0
EOF
