<?xml version="1.0" encoding="utf-8"?>
<!-- Generator: Adobe Illustrator 23.0.3, SVG Export Plug-In . SVG Version: 6.00 Build 0)  -->
<svg version="1.1" id="Laag_1" xmlns="http://www.w3.org/2000/svg" xmlns:xlink="http://www.w3.org/1999/xlink" x="0px" y="0px"
	 viewBox="0 0 1700.8 850.4" style="enable-background:new 0 0 1700.8 850.4;" xml:space="preserve">
<style type="text/css">
	.st0{fill:none;stroke:#FF0000;stroke-width:0.1;stroke-linecap:round;}
	.st1{font-family:'MyriadPro-Regular';}
	.st2{font-size:12px;}
</style>
<g id="svgGroup">
	<path id="front_outsideCutPath_2_" vector-effect="non-scaling-stroke" class="st0" d="M257.2,11.4l-8.5,0v31.9h8.5v31.9h-8.5
		l0,33.7l28,0l0-8.5l31.9,0v8.5l31.9,0v-8.5l31.9,0v8.5l31.9,0v-8.5l31.9,0v8.5l28,0V75.2l-8.5,0V43.3h8.5l0-31.9l-8.5,0L257.2,11.4
		z"/>
	<path id="left_outsideCutPath_3_" vector-effect="non-scaling-stroke" class="st0" d="M233.7,406h8.5v-31.9h-8.5v-31.9h8.5v-31.9
		h-8.5v-31.9h8.5V249h-33.7v-8.5h-31.9v8.5h-31.9v-8.5l-129.3,0"/>
	<path id="left_outsideCutPath_4_" vector-effect="non-scaling-stroke" class="st0" d="M233.7,437.8"/>
	<polyline class="st0" points="15.5,240.5 15.5,475.8 242.2,475.8 242.2,437.8 242.2,414.8 233.7,414.8 233.7,406 	"/>
	<path id="back_outsideCutPath_32_" vector-effect="non-scaling-stroke" class="st0" d="M144.8,218.3v8.5"/>
	<path id="back_outsideCutPath_28_" vector-effect="non-scaling-stroke" class="st0" d="M208.6,226.8l-31.9,0l0-8.5h-31.9v8.5
		l-31.9,0l0-8.5H81v8.5l-31.9,0l0-8.5l-33.7,0l0-198.4l33.7,0v-8.5l31.9,0l0,8.5l31.9,0v-8.5l31.9,0v8.5l31.9,0v-8.5l31.9,0v8.5
		l25.2,0v19.5"/>
	<path id="back_outsideCutPath_26_" vector-effect="non-scaling-stroke" class="st0" d="M15.5,19.9"/>
	<path id="back_outsideCutPath_25_" vector-effect="non-scaling-stroke" class="st0" d="M144.8,11.4v8.5"/>
	<path id="right_outsideCutPath_13_" vector-effect="non-scaling-stroke" class="st0" d="M24,680.9"/>
	<path id="right_outsideCutPath_10_" vector-effect="non-scaling-stroke" class="st0" d="M242.2,718.8v-45.4l0-181.3v-8.5l-129.3,0
		v8.5l-31.9,0v-8.5H49.2v8.5H15.5l0,29.4H24l0,31.9h-8.5l0,31.9H24l0,31.9h-8.5l0,31.9H24l0,8.5h-8.5l0,23.4l-0.1,37.9"/>
	<path id="right_outsideCutPath_9_" vector-effect="non-scaling-stroke" class="st0" d="M132.8,483.6"/>
	<path id="right_outsideCutPath_11_" vector-effect="non-scaling-stroke" class="st0" d="M164.7,483.6"/>
	<path id="right_outsideCutPath_7_" vector-effect="non-scaling-stroke" class="st0" d="M196.5,483.6"/>
	<path id="right_outsideCutPath_8_" vector-effect="non-scaling-stroke" class="st0" d="M196.5,718.8"/>
	<path id="right_outsideCutPath_4_" vector-effect="non-scaling-stroke" class="st0" d="M164.7,718.8"/>
	<path id="right_outsideCutPath_5_" vector-effect="non-scaling-stroke" class="st0" d="M132.8,718.8"/>
	<path id="right_outsideCutPath_1_" vector-effect="non-scaling-stroke" class="st0" d="M100.9,718.8"/>
	<path id="right_outsideCutPath_6_" vector-effect="non-scaling-stroke" class="st0" d="M69,718.8"/>
	<path id="right_outsideCutPath_3_" vector-effect="non-scaling-stroke" class="st0" d="M37.1,718.8"/>
	<polyline class="st0" points="436.2,278.8 436.2,287.3 464.1,287.3 464.1,278.8 455.6,278.8 455.6,246.9 464.1,246.9 464.1,215 
		455.6,215 455.6,183.1 464.1,183.1 464.1,151.2 455.6,151.2 455.6,121.8 436.2,121.8 436.2,113.4 404.3,113.3 404.3,121.8 
		372.4,121.8 372.4,113.3 340.5,113.3 340.5,121.8 308.6,121.8 308.6,113.3 276.7,113.3 276.7,121.8 257.2,121.8 257.2,151.2 
		248.7,151.2 248.7,183.1 257.2,183.1 257.2,215 248.7,215 248.7,246.9 257.2,246.9 257.2,278.8 248.7,278.8 248.7,287.3 
		276.7,287.3 276.7,278.8 	"/>
	<path id="front_outsideCutPath_5_" vector-effect="non-scaling-stroke" class="st0" d="M144.8,19.9"/>
	<path id="front_outsideCutPath_6_" vector-effect="non-scaling-stroke" class="st0" d="M144.8,11.4"/>
	<polyline class="st0" points="233.7,198.8 242.2,198.8 242.2,167 233.7,167 233.7,135.1 242.2,135.1 242.2,103.2 233.7,103.2 
		233.7,71.3 242.2,71.3 242.2,39.4 233.7,39.4 	"/>
	<polyline class="st0" points="233.7,198.8 233.7,218.3 208.6,218.3 208.6,226.8 	"/>
	<path id="front_outsideCutPath_4_" vector-effect="non-scaling-stroke" class="st0" d="M144.8,226.8"/>
	<path id="front_outsideCutPath_1_" vector-effect="non-scaling-stroke" class="st0" d="M144.8,218.3"/>
</g>
<text transform="matrix(1 0 0 1 343.5302 56.2008)" class="st1 st2">Boven</text>
<text transform="matrix(1 0 0 1 115.313 119.124)" class="st1 st2">onder</text>
<text transform="matrix(1 0 0 1 103.6485 547.4801)" class="st1 st2">Rechts</text>
<text transform="matrix(1 0 0 1 105.9552 303.1077)" class="st1 st2">Links</text>
<path class="st0" d="M242.2,695.3"/>
<path class="st0" d="M394.3,8.4"/>
<path class="st0" d="M426.2,8.4"/>
<path class="st0" d="M242.3,718.8"/>
<path class="st0" d="M242.3,718.8"/>
<path class="st0" d="M208.5,718.8"/>
<path class="st0" d="M15.4,718.8"/>
<path class="st0" d="M15.4,718.8"/>
<path class="st0" d="M27.2,618.6"/>
<path id="back_outsideCutPath_1_" vector-effect="non-scaling-stroke" class="st0" d="M49.2,649H81"/>
<path id="back_outsideCutPath_2_" vector-effect="non-scaling-stroke" class="st0" d="M81,649v8.5"/>
<path id="back_outsideCutPath_4_" vector-effect="non-scaling-stroke" class="st0" d="M81,657.5H49.2"/>
<path id="back_outsideCutPath_3_" vector-effect="non-scaling-stroke" class="st0" d="M49.2,657.5V649"/>
<path id="back_outsideCutPath_8_" vector-effect="non-scaling-stroke" class="st0" d="M112.9,649h31.9"/>
<path id="back_outsideCutPath_7_" vector-effect="non-scaling-stroke" class="st0" d="M144.8,649v8.5"/>
<path id="back_outsideCutPath_43_" vector-effect="non-scaling-stroke" class="st0" d="M144.8,657.5h-31.9"/>
<path id="back_outsideCutPath_44_" vector-effect="non-scaling-stroke" class="st0" d="M144.8,718.8"/>
<path id="back_outsideCutPath_5_" vector-effect="non-scaling-stroke" class="st0" d="M112.9,657.5V649"/>
<path id="back_outsideCutPath_12_" vector-effect="non-scaling-stroke" class="st0" d="M176.6,649l31.9,0"/>
<path id="back_outsideCutPath_11_" vector-effect="non-scaling-stroke" class="st0" d="M208.5,649v8.5"/>
<path id="back_outsideCutPath_10_" vector-effect="non-scaling-stroke" class="st0" d="M208.5,657.5h-31.9"/>
<path id="back_outsideCutPath_9_" vector-effect="non-scaling-stroke" class="st0" d="M176.6,657.5V649"/>
<path id="back_outsideCutPath_33_" vector-effect="non-scaling-stroke" class="st0" d="M276.7,287.3"/>
<path id="back_outsideCutPath_20_" vector-effect="non-scaling-stroke" class="st0" d="M308.6,287.3"/>
<path id="back_outsideCutPath_14_" vector-effect="non-scaling-stroke" class="st0" d="M276.7,278.8h31.9"/>
<path id="back_outsideCutPath_13_" vector-effect="non-scaling-stroke" class="st0" d="M308.6,278.8v8.5h31.9v-8.5"/>
<path class="st0" d="M461.5,281.9"/>
<path class="st0" d="M455.6,278.8"/>
<path class="st0" d="M257.2,278.8"/>
<path class="st0" d="M276.7,121.8"/>
<path id="back_outsideCutPath_24_" vector-effect="non-scaling-stroke" class="st0" d="M340.5,287.3"/>
<path id="back_outsideCutPath_23_" vector-effect="non-scaling-stroke" class="st0" d="M372.4,287.3"/>
<path id="back_outsideCutPath_18_" vector-effect="non-scaling-stroke" class="st0" d="M340.5,278.8h31.9"/>
<path id="back_outsideCutPath_17_" vector-effect="non-scaling-stroke" class="st0" d="M372.4,278.8v8.5h31.9v-8.5"/>
<path class="st0" d="M340.5,121.8"/>
<path id="back_outsideCutPath_21_" vector-effect="non-scaling-stroke" class="st0" d="M404.3,287.3"/>
<path id="back_outsideCutPath_6_" vector-effect="non-scaling-stroke" class="st0" d="M436.2,287.3"/>
<path id="back_outsideCutPath_22_" vector-effect="non-scaling-stroke" class="st0" d="M404.3,278.8h31.9"/>
<path class="st0" d="M404.3,121.8"/>
<path class="st0" d="M176.6,653.3"/>
<path class="st0" d="M112.9,654.3"/>
<path class="st0" d="M49.2,653.3"/>
<path class="st0" d="M15.5,14.1"/>
<path id="back_outsideCutPath_41_" vector-effect="non-scaling-stroke" class="st0" d="M208.5,414.8h-31.9"/>
<path id="back_outsideCutPath_40_" vector-effect="non-scaling-stroke" class="st0" d="M176.6,414.8v-8.5"/>
<path id="back_outsideCutPath_39_" vector-effect="non-scaling-stroke" class="st0" d="M176.6,406.3h31.9"/>
<path id="back_outsideCutPath_38_" vector-effect="non-scaling-stroke" class="st0" d="M208.5,406.3v8.5"/>
<path id="back_outsideCutPath_37_" vector-effect="non-scaling-stroke" class="st0" d="M144.7,414.8h-31.9"/>
<path id="back_outsideCutPath_36_" vector-effect="non-scaling-stroke" class="st0" d="M112.9,414.8v-8.5"/>
<path id="back_outsideCutPath_35_" vector-effect="non-scaling-stroke" class="st0" d="M112.9,406.3h31.9"/>
<path id="back_outsideCutPath_34_" vector-effect="non-scaling-stroke" class="st0" d="M144.7,406.3v8.5"/>
<path id="back_outsideCutPath_31_" vector-effect="non-scaling-stroke" class="st0" d="M81,414.8H49.1"/>
<path id="back_outsideCutPath_30_" vector-effect="non-scaling-stroke" class="st0" d="M49.1,414.8v-8.5"/>
<path id="back_outsideCutPath_29_" vector-effect="non-scaling-stroke" class="st0" d="M49.1,406.3H81"/>
<path id="back_outsideCutPath_27_" vector-effect="non-scaling-stroke" class="st0" d="M81,406.3v8.5"/>
<path class="st0" d="M81,410.6"/>
<path class="st0" d="M144.7,409.5"/>
<path class="st0" d="M208.5,410.6"/>
<path class="st0" d="M15.5,406"/>
<path class="st0" d="M233.7,406"/>
<path class="st0" d="M43.3,121.8"/>
<path class="st0" d="M15,121.8"/>
<path class="st0" d="M81,487.7"/>
<path class="st0" d="M57.1,103.1"/>
<path class="st0" d="M34.4,19.9"/>
<path class="st0" d="M34.4,218.3"/>
<path class="st0" d="M34.4,80.4"/>
<path class="st0" d="M43.3,156"/>
<path class="st0" d="M49.2,154.3"/>
<path class="st0" d="M49.2,218"/>
<path class="st0" d="M77.2,154.6"/>
<line class="st0" x1="43.3" y1="83.7" x2="43.3" y2="154.6"/>
<path class="st0" d="M57.5,84"/>
<path class="st0" d="M49.2,19.8"/>
<path class="st0" d="M49.2,218"/>
<path class="st0" d="M57.3,154.6"/>
<path class="st0" d="M43.1,154.6"/>
<path class="st0" d="M101.1,34"/>
<path class="st0" d="M101.1,97.8"/>
<line class="st0" x1="43.4" y1="83.7" x2="57.6" y2="83.7"/>
<path class="st0" d="M43.3,154.9"/>
<polyline class="st0" points="43.3,154.6 57.6,154.6 57.6,83.8 "/>
<path class="st0" d="M78.2,649"/>
<path class="st0" d="M78.2,718.8"/>
<path class="st0" d="M95.8,607.9"/>
<path class="st0" d="M242.2,680.9"/>
<path class="st0" d="M24,680.9"/>
<path id="back_outsideCutPath_42_" vector-effect="non-scaling-stroke" class="st0" d="M49.2,680.9H81"/>
<path id="back_outsideCutPath_19_" vector-effect="non-scaling-stroke" class="st0" d="M81,680.9l0,8.5"/>
<path id="back_outsideCutPath_16_" vector-effect="non-scaling-stroke" class="st0" d="M81,689.4H49.2"/>
<path id="back_outsideCutPath_52_" vector-effect="non-scaling-stroke" class="st0" d="M24,718.8"/>
<path id="back_outsideCutPath_15_" vector-effect="non-scaling-stroke" class="st0" d="M24,680.9"/>
<path id="back_outsideCutPath_45_" vector-effect="non-scaling-stroke" class="st0" d="M49.2,689.4l0-8.5"/>
<path class="st0" d="M49.2,685.2"/>
<path class="st0" d="M78.2,680.9"/>
<path class="st0" d="M349.7-25.7"/>
<path class="st0" d="M49.2,651.3"/>
<path class="st0" d="M24,651.3"/>
<path class="st0" d="M242.3,718.8"/>
<path class="st0" d="M15.4,718.8"/>
<line class="st0" x1="15.4" y1="718.8" x2="242.3" y2="718.8"/>
<path id="right_outsideCutPath_15_" vector-effect="non-scaling-stroke" class="st0" d="M252.3,448.2"/>
<path id="right_outsideCutPath_14_" vector-effect="non-scaling-stroke" class="st0" d="M451.7,473.7"/>
<path id="right_outsideCutPath_12_" vector-effect="non-scaling-stroke" class="st0" d="M313.6,510.5v8.5h31.9v-8.5h31.9v8.5h31.9
	v-8.5h31.9v8.5h29.4v-19.5h8.5l0-31.9h-8.5v-19.5H252.3V519h29.4v-8.5H313.6"/>
<path class="st0" d="M448.2,518.3"/>
<path class="st0" d="M441.1,448.2"/>
<path class="st0" d="M441.1,510.5"/>
<path id="back_outsideCutPath_48_" vector-effect="non-scaling-stroke" class="st0" d="M445.4,477.6h-31.9"/>
<path id="back_outsideCutPath_47_" vector-effect="non-scaling-stroke" class="st0" d="M413.5,477.6v8.5"/>
<path id="back_outsideCutPath_46_" vector-effect="non-scaling-stroke" class="st0" d="M413.5,486.1h31.9"/>
<path id="back_outsideCutPath_50_" vector-effect="non-scaling-stroke" class="st0" d="M470.5,477.6"/>
<path id="back_outsideCutPath_49_" vector-effect="non-scaling-stroke" class="st0" d="M445.4,486.1v-8.5"/>
<path class="st0" d="M445.4,481.8"/>
<path class="st0" d="M411,477.6"/>
<path class="st0" d="M470.5,467.7"/>
<path class="st0" d="M470.5,499.5"/>
<path id="right_outsideCutPath_2_" vector-effect="non-scaling-stroke" class="st0" d="M180.9,789.9v8.5H149v-8.5h-31.9v8.5H85.2
	v-8.5H53.3v8.5H23.9v-19.5h-8.5V747h8.5l0-19.5h218.3v70.9h-29.4v-8.5H180.9"/>
<path id="back_outsideCutPath" vector-effect="non-scaling-stroke" class="st0" d="M253.7,529.7v19.5h8.5v31.9h-8.5v19.5h23v-8.5
	h31.9v8.5h31.9v-8.5h31.9v8.5h23v-19.5h-8.5v-31.9h8.5v-19.5H253.7z"/>
<path id="bottom_outsideCutPath_2_" vector-effect="non-scaling-stroke" class="st0" d="M479,304.3h-29.4v-8.5h-31.9v8.5h-31.9v-8.5
	h-31.9v8.5h-31.9v-8.5h-31.9v8.5h-29.4v14.5h-8.5v31.9h8.5v31.9h-8.5v31.9h8.5V429h29.4v8.5h31.9V429h31.9v8.5h31.9V429h31.9v8.5
	h31.9V429H479V304.3z"/>
<path id="right_outsideCutPath_16_" vector-effect="non-scaling-stroke" class="st0" d="M432.5,422.2"/>
<path class="st0" d="M96.4,229.4"/>
<rect x="308.6" y="309.9" class="st0" width="56.7" height="113.4"/>
<polygon class="st0" points="1159.3,310.5 1170.7,310.5 1170.7,310.5 1159.3,310.5 "/>
<text transform="matrix(3.267949e-07 1 -1 3.267949e-07 445.3626 343.6282)" class="st1 st2">Scan hier</text>
<text transform="matrix(1 0 0 1 354.8664 176.1378)" class="st1 st2">Achter</text>
<text transform="matrix(1 0 0 1 293.6378 469.8072)" class="st1 st2">Links scanner</text>
<text transform="matrix(1 0 0 1 287.4015 557.1138)" class="st1 st2">Achter scanner</text>
<text transform="matrix(1 0 0 1 76.5041 752.1382)" class="st1 st2">Rechts scanner</text>
</svg>
