0
SECTION
2
HEADER
9
$INSUNITS
70
4
9
$ACADVER
1
AC1014
9
$HANDSEED
5
FFFF
0
ENDSEC
0
SECTION
2
TABLES
0
TABLE
2
VPORT
5
8
100
AcDbSymbolTable
0
ENDTAB
0
TABLE
2
LTYPE
5
5
100
AcDbSymbolTable
0
LTYPE
5
14
100
AcDbSymbolTableRecord
100
AcDbLinetypeTableRecord
2
BYBLOCK
70
0
0
LTYPE
5
15
100
AcDbSymbolTableRecord
100
AcDbLinetypeTableRecord
2
BYLAYER
70
0
0
ENDTAB
0
TABLE
2
LAYER
5
2
100
AcDbSymbolTable
70
2
0
LAYER
5
50
100
AcDbSymbolTableRecord
100
AcDbLayerTableRecord
2
0
70
0
6
CONTINUOUS
0
ENDTAB
0
TABLE
2
STYLE
5
3
100
AcDbSymbolTable
70
1
0
STYLE
5
11
100
AcDbSymbolTableRecord
100
AcDbTextStyleTableRecord
2
STANDARD
70
0
0
ENDTAB
0
TABLE
2
VIEW
5
6
100
AcDbSymbolTable
70
0
0
ENDTAB
0
TABLE
2
UCS
5
7
100
AcDbSymbolTable
70
0
0
ENDTAB
0
TABLE
2
APPID
5
9
100
AcDbSymbolTable
70
2
0
APPID
5
12
100
AcDbSymbolTableRecord
100
AcDbRegAppTableRecord
2
ACAD
70
0
0
ENDTAB
0
TABLE
2
DIMSTYLE
5
A
100
AcDbSymbolTable
70
1
0
ENDTAB
0
TABLE
2
BLOCK_RECORD
5
1
100
AcDbSymbolTable
70
1
0
BLOCK_RECORD
5
1F
100
AcDbSymbolTableRecord
100
AcDbBlockTableRecord
2
*MODEL_SPACE
0
BLOCK_RECORD
5
1B
100
AcDbSymbolTableRecord
100
AcDbBlockTableRecord
2
*PAPER_SPACE
0
ENDTAB
0
ENDSEC
0
SECTION
2
BLOCKS
0
BLOCK
5
20
100
AcDbEntity
100
AcDbBlockBegin
2
*MODEL_SPACE
0
ENDBLK
5
21
100
AcDbEntity
100
AcDbBlockEnd
0
BLOCK
5
1C
100
AcDbEntity
100
AcDbBlockBegin
2
*PAPER_SPACE
0
ENDBLK
5
1D
100
AcDbEntity
100
AcDbBlockEnd
0
ENDSEC
0
SECTION
2
ENTITIES
0
LWPOLYLINE
5
100
100
AcDbEntity
8
0
100
AcDbPolyline
90
56
70
1
43
0.0
10
71
20
8.2222222222222197
10
68
20
8.2222222222222197
10
68
20
2.9999999999999982
10
65.769230769230774
20
3.0000000000000004
10
65.769230769230774
20
0
10
60.538461538461533
20
0
10
60.538461538461533
20
3.0000000000000004
10
55.307692307692307
20
3.0000000000000004
10
55.307692307692307
20
0
10
50.07692307692308
20
0
10
50.07692307692308
20
3.0000000000000004
10
44.846153846153847
20
3.0000000000000004
10
44.846153846153847
20
0
10
39.615384615384613
20
0
10
39.615384615384613
20
3.0000000000000004
10
34.384615384615387
20
3.0000000000000004
10
34.384615384615387
20
0
10
29.153846153846157
20
0
10
29.153846153846157
20
3.0000000000000004
10
23.923076923076927
20
3.0000000000000004
10
23.923076923076927
20
0
10
18.692307692307693
20
0
10
18.692307692307693
20
3.0000000000000004
10
13.461538461538463
20
3.0000000000000004
10
13.461538461538463
20
0
10
8.2307692307692317
20
0
10
8.2307692307692317
20
3.0000000000000004
10
3.0000000000000004
20
3.0000000000000004
10
3.0000000000000004
20
5.5555555555555536
10
0
20
5.5555555555555536
10
0
20
11.111111111111111
10
3.0000000000000004
20
11.111111111111111
10
3.0000000000000004
20
16.666666666666664
10
0
20
16.666666666666664
10
0
20
22.222222222222221
10
3.0000000000000004
20
22.222222222222221
10
3.0000000000000004
20
27.777777777777779
10
0
20
27.777777777777779
10
0
20
33.333333333333336
10
3.0000000000000004
20
33.333333333333336
10
3.0000000000000004
20
38.888888888888886
10
0
20
38.888888888888886
10
0
20
40
10
71.000001057982445
20
40
10
71
20
39.555555555555557
10
68
20
39.555555555555557
10
68
20
34.333333333333336
10
71
20
34.333333333333336
10
71
20
29.111111111111111
10
68
20
29.111111111111111
10
68
20
23.888888888888889
10
71
20
23.888888888888889
10
71
20
18.666666666666664
10
68
20
18.666666666666664
10
68
20
13.444444444444441
10
71
20
13.444444444444441
0
ENDSEC
0
SECTION
2
OBJECTS
0
DICTIONARY
5
C
100
AcDbDictionary
3
ACAD_GROUP
350
D
3
ACAD_MLINESTYLE
350
17
0
DICTIONARY
5
D
100
AcDbDictionary
0
DICTIONARY
5
1A
330
C
100
AcDbDictionary
0
DICTIONARY
5
17
100
AcDbDictionary
0
ENDSEC
0
EOF
