<?xml version="1.0" encoding="utf-8"?>
<!-- Generator: Adobe Illustrator 23.0.3, SVG Export Plug-In . SVG Version: 6.00 Build 0)  -->
<svg version="1.1" id="Laag_1" xmlns="http://www.w3.org/2000/svg" xmlns:xlink="http://www.w3.org/1999/xlink" x="0px" y="0px"
	 viewBox="0 0 1700.8 850.4" style="enable-background:new 0 0 1700.8 850.4;" xml:space="preserve">
<style type="text/css">
	.st0{fill:none;stroke:#FF0000;stroke-width:2.834646e-02;stroke-linecap:round;}
	.st1{fill:none;stroke:#FF0000;stroke-width:0.1;stroke-linecap:round;}
	.st2{fill:none;stroke:#FF0000;stroke-width:2.834646e-02;stroke-linecap:round;stroke-miterlimit:11.339;}
	.st3{clip-path:url(#SVGID_2_);fill:#FFFFFF;}
	.st4{clip-path:url(#SVGID_2_);fill:none;stroke:#FF0000;stroke-width:2.834646e-02;stroke-miterlimit:10;}
</style>
<g id="svgGroup">
	<path id="front_outsideCutPath_2_" vector-effect="non-scaling-stroke" class="st0" d="M257.2,11.4h-8.5v31.9h8.5v31.9h-8.5v33.7
		h28v-8.5h31.9v8.5h31.9v-8.5h31.9v8.5h31.9v-8.5h31.9v8.5h28V75.2h-8.5V43.3h8.5V11.4h-8.5H257.2z"/>
	<path id="left_outsideCutPath_3_" vector-effect="non-scaling-stroke" class="st0" d="M233.7,406h8.5v-31.9h-8.5v-31.9h8.5v-31.9
		h-8.5v-31.9h8.5V249h-33.7v-8.5h-31.9v8.5h-31.9v-8.5H15.4"/>
	<path id="left_outsideCutPath_4_" vector-effect="non-scaling-stroke" class="st0" d="M233.7,437.8"/>
	<polyline class="st0" points="15.5,240.5 15.5,475.8 242.2,475.8 242.2,437.8 242.2,414.8 233.7,414.8 233.7,406 	"/>
	<path id="back_outsideCutPath_32_" vector-effect="non-scaling-stroke" class="st0" d="M144.8,218.3v8.5"/>
	<path id="back_outsideCutPath_28_" vector-effect="non-scaling-stroke" class="st0" d="M208.6,226.8h-31.9v-8.5h-31.9v8.5h-31.9
		v-8.5H81v8.5H49.1v-8.5H15.4V19.9h33.7v-8.5H81v8.5h31.9v-8.5h31.9v8.5h31.9v-8.5h31.9v8.5h25.2v19.5"/>
	<path id="back_outsideCutPath_26_" vector-effect="non-scaling-stroke" class="st0" d="M15.5,19.9"/>
	<path id="back_outsideCutPath_25_" vector-effect="non-scaling-stroke" class="st0" d="M144.8,11.4v8.5"/>
	<path id="right_outsideCutPath_13_" vector-effect="non-scaling-stroke" class="st0" d="M24,680.9"/>
	<path id="right_outsideCutPath_10_" vector-effect="non-scaling-stroke" class="st0" d="M242.2,718.8v-45.4V492.1v-8.5H112.9v8.5
		H81v-8.5H49.2v8.5H15.5v29.4H24v31.9h-8.5v31.9H24v31.9h-8.5v31.9H24v8.5h-8.5V681l-0.1,37.9"/>
	<path id="right_outsideCutPath_9_" vector-effect="non-scaling-stroke" class="st0" d="M132.8,483.6"/>
	<path id="right_outsideCutPath_11_" vector-effect="non-scaling-stroke" class="st0" d="M164.7,483.6"/>
	<path id="right_outsideCutPath_7_" vector-effect="non-scaling-stroke" class="st0" d="M196.5,483.6"/>
	<path id="right_outsideCutPath_8_" vector-effect="non-scaling-stroke" class="st0" d="M196.5,718.8"/>
	<path id="right_outsideCutPath_4_" vector-effect="non-scaling-stroke" class="st0" d="M164.7,718.8"/>
	<path id="right_outsideCutPath_5_" vector-effect="non-scaling-stroke" class="st0" d="M132.8,718.8"/>
	<path id="right_outsideCutPath_1_" vector-effect="non-scaling-stroke" class="st0" d="M100.9,718.8"/>
	<path id="right_outsideCutPath_6_" vector-effect="non-scaling-stroke" class="st0" d="M69,718.8"/>
	<path id="right_outsideCutPath_3_" vector-effect="non-scaling-stroke" class="st0" d="M37.1,718.8"/>
	<polyline class="st0" points="436.2,278.8 436.2,287.3 464.1,287.3 464.1,278.8 455.6,278.8 455.6,246.9 464.1,246.9 464.1,215 
		455.6,215 455.6,183.1 464.1,183.1 464.1,151.2 455.6,151.2 455.6,121.8 436.2,121.8 436.2,113.4 404.3,113.3 404.3,121.8 
		372.4,121.8 372.4,113.3 340.5,113.3 340.5,121.8 308.6,121.8 308.6,113.3 276.7,113.3 276.7,121.8 257.2,121.8 257.2,151.2 
		248.7,151.2 248.7,183.1 257.2,183.1 257.2,215 248.7,215 248.7,246.9 257.2,246.9 257.2,278.8 248.7,278.8 248.7,287.3 
		276.7,287.3 276.7,278.8 	"/>
	<path id="front_outsideCutPath_5_" vector-effect="non-scaling-stroke" class="st0" d="M144.8,19.9"/>
	<path id="front_outsideCutPath_6_" vector-effect="non-scaling-stroke" class="st0" d="M144.8,11.4"/>
	<polyline class="st0" points="233.7,198.8 242.2,198.8 242.2,167 233.7,167 233.7,135.1 242.2,135.1 242.2,103.2 233.7,103.2 
		233.7,71.3 242.2,71.3 242.2,39.4 233.7,39.4 	"/>
	<polyline class="st0" points="233.7,198.8 233.7,218.3 208.6,218.3 208.6,226.8 	"/>
	<path id="front_outsideCutPath_4_" vector-effect="non-scaling-stroke" class="st0" d="M144.8,226.8"/>
	<path id="front_outsideCutPath_1_" vector-effect="non-scaling-stroke" class="st0" d="M144.8,218.3"/>
</g>
<path class="st0" d="M242.2,695.3"/>
<path class="st0" d="M394.3,8.4"/>
<path class="st0" d="M426.2,8.4"/>
<path class="st0" d="M242.3,718.8"/>
<path class="st0" d="M242.3,718.8"/>
<path class="st0" d="M208.5,718.8"/>
<path class="st0" d="M15.4,718.8"/>
<path class="st0" d="M15.4,718.8"/>
<path class="st0" d="M27.2,618.6"/>
<path id="back_outsideCutPath_1_" vector-effect="non-scaling-stroke" class="st0" d="M49.2,649H81"/>
<path id="back_outsideCutPath_2_" vector-effect="non-scaling-stroke" class="st0" d="M81,649v8.5"/>
<path id="back_outsideCutPath_4_" vector-effect="non-scaling-stroke" class="st0" d="M81,657.5H49.2"/>
<path id="back_outsideCutPath_3_" vector-effect="non-scaling-stroke" class="st0" d="M49.2,657.5V649"/>
<path id="back_outsideCutPath_8_" vector-effect="non-scaling-stroke" class="st0" d="M112.9,649h31.9"/>
<path id="back_outsideCutPath_7_" vector-effect="non-scaling-stroke" class="st0" d="M144.8,649v8.5"/>
<path id="back_outsideCutPath_43_" vector-effect="non-scaling-stroke" class="st0" d="M144.8,657.5h-31.9"/>
<path id="back_outsideCutPath_44_" vector-effect="non-scaling-stroke" class="st0" d="M144.8,718.8"/>
<path id="back_outsideCutPath_5_" vector-effect="non-scaling-stroke" class="st0" d="M112.9,657.5V649"/>
<path id="back_outsideCutPath_12_" vector-effect="non-scaling-stroke" class="st0" d="M176.6,649h31.9"/>
<path id="back_outsideCutPath_11_" vector-effect="non-scaling-stroke" class="st0" d="M208.5,649v8.5"/>
<path id="back_outsideCutPath_10_" vector-effect="non-scaling-stroke" class="st0" d="M208.5,657.5h-31.9"/>
<path id="back_outsideCutPath_9_" vector-effect="non-scaling-stroke" class="st0" d="M176.6,657.5V649"/>
<path id="back_outsideCutPath_33_" vector-effect="non-scaling-stroke" class="st0" d="M276.7,287.3"/>
<path id="back_outsideCutPath_20_" vector-effect="non-scaling-stroke" class="st0" d="M308.6,287.3"/>
<path id="back_outsideCutPath_14_" vector-effect="non-scaling-stroke" class="st0" d="M276.7,278.8h31.9"/>
<path id="back_outsideCutPath_13_" vector-effect="non-scaling-stroke" class="st0" d="M308.6,278.8v8.5h31.9v-8.5"/>
<path class="st0" d="M461.5,281.9"/>
<path class="st0" d="M455.6,278.8"/>
<path class="st0" d="M257.2,278.8"/>
<path class="st0" d="M276.7,121.8"/>
<path id="back_outsideCutPath_24_" vector-effect="non-scaling-stroke" class="st0" d="M340.5,287.3"/>
<path id="back_outsideCutPath_23_" vector-effect="non-scaling-stroke" class="st0" d="M372.4,287.3"/>
<path id="back_outsideCutPath_18_" vector-effect="non-scaling-stroke" class="st0" d="M340.5,278.8h31.9"/>
<path id="back_outsideCutPath_17_" vector-effect="non-scaling-stroke" class="st0" d="M372.4,278.8v8.5h31.9v-8.5"/>
<path class="st0" d="M340.5,121.8"/>
<path id="back_outsideCutPath_21_" vector-effect="non-scaling-stroke" class="st0" d="M404.3,287.3"/>
<path id="back_outsideCutPath_6_" vector-effect="non-scaling-stroke" class="st0" d="M436.2,287.3"/>
<path id="back_outsideCutPath_22_" vector-effect="non-scaling-stroke" class="st0" d="M404.3,278.8h31.9"/>
<path class="st0" d="M404.3,121.8"/>
<path class="st0" d="M176.6,653.3"/>
<path class="st0" d="M112.9,654.3"/>
<path class="st0" d="M49.2,653.3"/>
<path class="st0" d="M15.5,14.1"/>
<path id="back_outsideCutPath_41_" vector-effect="non-scaling-stroke" class="st0" d="M208.5,414.8h-31.9"/>
<path id="back_outsideCutPath_40_" vector-effect="non-scaling-stroke" class="st0" d="M176.6,414.8v-8.5"/>
<path id="back_outsideCutPath_39_" vector-effect="non-scaling-stroke" class="st0" d="M176.6,406.3h31.9"/>
<path id="back_outsideCutPath_38_" vector-effect="non-scaling-stroke" class="st0" d="M208.5,406.3v8.5"/>
<path id="back_outsideCutPath_37_" vector-effect="non-scaling-stroke" class="st0" d="M144.7,414.8h-31.9"/>
<path id="back_outsideCutPath_36_" vector-effect="non-scaling-stroke" class="st0" d="M112.9,414.8v-8.5"/>
<path id="back_outsideCutPath_35_" vector-effect="non-scaling-stroke" class="st0" d="M112.9,406.3h31.9"/>
<path id="back_outsideCutPath_34_" vector-effect="non-scaling-stroke" class="st0" d="M144.7,406.3v8.5"/>
<path id="back_outsideCutPath_31_" vector-effect="non-scaling-stroke" class="st0" d="M81,414.8H49.1"/>
<path id="back_outsideCutPath_30_" vector-effect="non-scaling-stroke" class="st0" d="M49.1,414.8v-8.5"/>
<path id="back_outsideCutPath_29_" vector-effect="non-scaling-stroke" class="st0" d="M49.1,406.3H81"/>
<path id="back_outsideCutPath_27_" vector-effect="non-scaling-stroke" class="st0" d="M81,406.3v8.5"/>
<path class="st0" d="M81,410.6"/>
<path class="st0" d="M144.7,409.5"/>
<path class="st0" d="M208.5,410.6"/>
<path class="st0" d="M15.5,406"/>
<path class="st0" d="M233.7,406"/>
<path class="st0" d="M43.3,121.8"/>
<path class="st0" d="M15,121.8"/>
<path class="st0" d="M81,487.7"/>
<path class="st0" d="M57.1,103.1"/>
<path class="st0" d="M34.4,19.9"/>
<path class="st0" d="M34.4,218.3"/>
<path class="st0" d="M34.4,80.4"/>
<path class="st0" d="M43.3,156"/>
<path class="st0" d="M49.2,154.3"/>
<path class="st0" d="M49.2,218"/>
<path class="st0" d="M77.2,154.6"/>
<line class="st0" x1="43.3" y1="83.7" x2="43.3" y2="154.6"/>
<path class="st0" d="M57.5,84"/>
<path class="st0" d="M49.2,19.8"/>
<path class="st0" d="M49.2,218"/>
<path class="st0" d="M57.3,154.6"/>
<path class="st0" d="M43.1,154.6"/>
<path class="st0" d="M101.1,34"/>
<path class="st0" d="M101.1,97.8"/>
<line class="st0" x1="43.4" y1="83.7" x2="57.6" y2="83.7"/>
<path class="st0" d="M43.3,154.9"/>
<polyline class="st0" points="43.3,154.6 57.6,154.6 57.6,83.8 "/>
<path class="st0" d="M78.2,649"/>
<path class="st0" d="M78.2,718.8"/>
<path class="st0" d="M95.8,607.9"/>
<path class="st0" d="M242.2,680.9"/>
<path class="st0" d="M24,680.9"/>
<path id="back_outsideCutPath_42_" vector-effect="non-scaling-stroke" class="st0" d="M49.2,680.9H81"/>
<path id="back_outsideCutPath_19_" vector-effect="non-scaling-stroke" class="st0" d="M81,680.9v8.5"/>
<path id="back_outsideCutPath_16_" vector-effect="non-scaling-stroke" class="st0" d="M81,689.4H49.2"/>
<path id="back_outsideCutPath_52_" vector-effect="non-scaling-stroke" class="st0" d="M24,718.8"/>
<path id="back_outsideCutPath_15_" vector-effect="non-scaling-stroke" class="st0" d="M24,680.9"/>
<path id="back_outsideCutPath_45_" vector-effect="non-scaling-stroke" class="st0" d="M49.2,689.4v-8.5"/>
<path class="st0" d="M49.2,685.2"/>
<path class="st0" d="M78.2,680.9"/>
<path class="st1" d="M349.7-25.7"/>
<path class="st0" d="M49.2,651.3"/>
<path class="st0" d="M24,651.3"/>
<path class="st0" d="M242.3,718.8"/>
<path class="st0" d="M15.4,718.8"/>
<line class="st0" x1="15.4" y1="718.8" x2="242.3" y2="718.8"/>
<path id="right_outsideCutPath_15_" vector-effect="non-scaling-stroke" class="st0" d="M252.3,448.2"/>
<path id="right_outsideCutPath_14_" vector-effect="non-scaling-stroke" class="st0" d="M451.7,473.7"/>
<path id="right_outsideCutPath_12_" vector-effect="non-scaling-stroke" class="st0" d="M313.6,510.5v8.5h31.9v-8.5h31.9v8.5h31.9
	v-8.5h31.9v8.5h29.4v-19.5h8.5v-31.9h-8.5v-19.5H252.3V519h29.4v-8.5H313.6"/>
<path class="st0" d="M448.2,518.3"/>
<path class="st0" d="M441.1,448.2"/>
<path class="st0" d="M441.1,510.5"/>
<path id="back_outsideCutPath_48_" vector-effect="non-scaling-stroke" class="st0" d="M445.4,477.6h-31.9"/>
<path id="back_outsideCutPath_47_" vector-effect="non-scaling-stroke" class="st0" d="M413.5,477.6v8.5"/>
<path id="back_outsideCutPath_46_" vector-effect="non-scaling-stroke" class="st0" d="M413.5,486.1h31.9"/>
<path id="back_outsideCutPath_50_" vector-effect="non-scaling-stroke" class="st0" d="M470.5,477.6"/>
<path id="back_outsideCutPath_49_" vector-effect="non-scaling-stroke" class="st0" d="M445.4,486.1v-8.5"/>
<path class="st0" d="M445.4,481.8"/>
<path class="st0" d="M411,477.6"/>
<path class="st0" d="M470.5,467.7"/>
<path class="st0" d="M470.5,499.5"/>
<path id="right_outsideCutPath_2_" vector-effect="non-scaling-stroke" class="st0" d="M180.9,789.9v8.5H149v-8.5h-31.9v8.5H85.2
	v-8.5H53.3v8.5H23.9v-19.5h-8.5V747h8.5v-19.5h218.3v70.9h-29.4v-8.5H180.9"/>
<path id="back_outsideCutPath" vector-effect="non-scaling-stroke" class="st0" d="M253.7,529.7v19.5h8.5v31.9h-8.5v19.5h23v-8.5
	h31.9v8.5h31.9v-8.5h31.9v8.5h23v-19.5h-8.5v-31.9h8.5v-19.5H253.7z"/>
<path id="bottom_outsideCutPath_2_" vector-effect="non-scaling-stroke" class="st0" d="M479,304.3h-29.4v-8.5h-31.9v8.5h-31.9v-8.5
	h-31.9v8.5H322v-8.5h-31.9v8.5h-29.4v14.5h-8.5v31.9h8.5v31.9h-8.5v31.9h8.5V429h29.4v8.5H322V429h31.9v8.5h31.9V429h31.9v8.5h31.9
	V429H479V304.3z"/>
<path id="right_outsideCutPath_16_" vector-effect="non-scaling-stroke" class="st0" d="M432.5,422.2"/>
<path class="st0" d="M96.4,229.4"/>
<rect x="308.6" y="309.9" class="st0" width="56.7" height="113.4"/>
<polygon class="st0" points="1159.3,310.5 1170.7,310.5 1170.7,310.5 "/>
<polygon class="st2" points="500,427.5 500,475 508.5,475 508.5,538.8 500,538.8 500,602.6 508.5,602.6 508.5,666.3 500,666.3 
	500,730.1 508.5,730.1 508.5,793.9 500,793.9 500,841.4 584.3,841.4 584.3,832.9 648.1,832.9 648.1,841.4 711.8,841.4 732.4,841.4 
	732.4,793.9 723.9,793.9 723.9,730.1 732.4,730.1 732.4,666.3 723.9,666.3 723.9,602.6 732.4,602.6 732.4,538.8 723.9,538.8 
	723.9,475 732.4,475 732.4,427.5 648.1,427.5 648.1,436 584.3,436 584.3,427.5 520.5,427.5 "/>
<polygon class="st2" points="749.4,427.5 749.4,475 740.9,475 740.9,538.8 749.4,538.8 749.4,602.6 740.9,602.6 740.9,666.3 
	749.4,666.3 749.4,730.1 740.9,730.1 740.9,793.9 749.4,793.9 749.4,841.4 796.9,841.4 796.9,832.9 860.7,832.9 860.7,841.4 
	908.1,841.4 908.1,793.9 916.6,793.9 916.6,730.1 908.1,730.1 908.1,666.3 916.6,666.3 916.6,602.6 908.1,602.6 908.1,538.8 
	916.6,538.8 916.6,475 908.1,475 908.1,427.5 860.7,427.5 860.7,436 796.9,436 796.9,427.5 "/>
<polygon class="st2" points="933.7,674.1 933.7,721.6 925.2,721.6 925.2,785.4 933.7,785.4 933.7,832.9 1009.5,832.9 1009.5,841.4 
	1073.3,841.4 1073.3,832.9 1137,832.9 1149.1,832.9 1149.1,785.4 1157.6,785.4 1157.6,721.6 1149.1,721.6 1149.1,674.1 
	1073.3,674.1 1073.3,665.6 1009.5,665.6 1009.5,674.1 945.7,674.1 "/>
<polygon class="st2" points="500,5.2 500,52.6 508.5,52.6 508.5,116.4 500,116.4 500,180.2 508.5,180.2 508.5,244 500,244 
	500,307.8 508.5,307.8 508.5,371.5 500,371.5 500,419 584.3,419 584.3,410.5 648.1,410.5 648.1,419 711.8,419 732.4,419 
	732.4,371.5 723.9,371.5 723.9,307.8 732.4,307.8 732.4,244 723.9,244 723.9,180.2 732.4,180.2 732.4,116.4 723.9,116.4 723.9,52.6 
	732.4,52.6 732.4,5.2 648.1,5.2 648.1,13.7 584.3,13.7 584.3,5.2 520.5,5.2 "/>
<polygon class="st2" points="749.4,5.2 749.4,52.6 740.9,52.6 740.9,116.4 749.4,116.4 749.4,180.2 740.9,180.2 740.9,244 
	749.4,244 749.4,307.8 740.9,307.8 740.9,371.5 749.4,371.5 749.4,419 796.9,419 796.9,410.5 860.7,410.5 860.7,419 908.1,419 
	908.1,371.5 916.6,371.5 916.6,307.8 908.1,307.8 908.1,244 916.6,244 916.6,180.2 908.1,180.2 908.1,116.4 916.6,116.4 916.6,52.6 
	908.1,52.6 908.1,5.2 860.7,5.2 860.7,13.7 796.9,13.7 796.9,5.2 "/>
<polygon class="st2" points="933.7,489.9 933.7,537.4 925.2,537.4 925.2,601.1 933.7,601.1 933.7,648.6 1009.5,648.6 1009.5,657.1 
	1073.3,657.1 1073.3,648.6 1137,648.6 1149.1,648.6 1149.1,601.1 1157.6,601.1 1157.6,537.4 1149.1,537.4 1149.1,489.9 
	1073.3,489.9 1073.3,481.4 1009.5,481.4 1009.5,489.9 945.7,489.9 "/>
<g>
	<defs>
		<rect id="SVGID_1_" x="487.9" y="-2.2" width="677.1" height="854.8"/>
	</defs>
	<clipPath id="SVGID_2_">
		<use xlink:href="#SVGID_1_"  style="overflow:visible;"/>
	</clipPath>
	<path class="st3" d="M701.2,549.4c0,47-38.1,85-85,85c-47,0-85-38.1-85-85s38.1-85,85-85C663.1,464.4,701.2,502.4,701.2,549.4"/>
	<circle class="st4" cx="616.2" cy="549.4" r="85"/>
	<path class="st3" d="M889.9,333.5c0,5.1-4.1,9.2-9.2,9.2s-9.2-4.1-9.2-9.2c0-5.1,4.1-9.2,9.2-9.2S889.9,328.4,889.9,333.5"/>
	
		<ellipse transform="matrix(1 -3.759526e-03 3.759526e-03 1 -1.2474 3.3133)" class="st4" cx="880.7" cy="333.5" rx="9.2" ry="9.2"/>
</g>
</svg>
