0
SECTION
2
HEADER
9
$INSUNITS
70
4
9
$ACADVER
1
AC1014
9
$HANDSEED
5
FFFF
0
ENDSEC
0
SECTION
2
TABLES
0
TABLE
2
VPORT
5
8
100
AcDbSymbolTable
0
ENDTAB
0
TABLE
2
LTYPE
5
5
100
AcDbSymbolTable
0
LTYPE
5
14
100
AcDbSymbolTableRecord
100
AcDbLinetypeTableRecord
2
BYBLOCK
70
0
0
LTYPE
5
15
100
AcDbSymbolTableRecord
100
AcDbLinetypeTableRecord
2
BYLAYER
70
0
0
ENDTAB
0
TABLE
2
LAYER
5
2
100
AcDbSymbolTable
70
2
0
LAYER
5
50
100
AcDbSymbolTableRecord
100
AcDbLayerTableRecord
2
0
70
0
6
CONTINUOUS
0
ENDTAB
0
TABLE
2
STYLE
5
3
100
AcDbSymbolTable
70
1
0
STYLE
5
11
100
AcDbSymbolTableRecord
100
AcDbTextStyleTableRecord
2
STANDARD
70
0
0
ENDTAB
0
TABLE
2
VIEW
5
6
100
AcDbSymbolTable
70
0
0
ENDTAB
0
TABLE
2
UCS
5
7
100
AcDbSymbolTable
70
0
0
ENDTAB
0
TABLE
2
APPID
5
9
100
AcDbSymbolTable
70
2
0
APPID
5
12
100
AcDbSymbolTableRecord
100
AcDbRegAppTableRecord
2
ACAD
70
0
0
ENDTAB
0
TABLE
2
DIMSTYLE
5
A
100
AcDbSymbolTable
70
1
0
ENDTAB
0
TABLE
2
BLOCK_RECORD
5
1
100
AcDbSymbolTable
70
1
0
BLOCK_RECORD
5
1F
100
AcDbSymbolTableRecord
100
AcDbBlockTableRecord
2
*MODEL_SPACE
0
BLOCK_RECORD
5
1B
100
AcDbSymbolTableRecord
100
AcDbBlockTableRecord
2
*PAPER_SPACE
0
ENDTAB
0
ENDSEC
0
SECTION
2
BLOCKS
0
BLOCK
5
20
100
AcDbEntity
100
AcDbBlockBegin
2
*MODEL_SPACE
0
ENDBLK
5
21
100
AcDbEntity
100
AcDbBlockEnd
0
BLOCK
5
1C
100
AcDbEntity
100
AcDbBlockBegin
2
*PAPER_SPACE
0
ENDBLK
5
1D
100
AcDbEntity
100
AcDbBlockEnd
0
ENDSEC
0
SECTION
2
ENTITIES
0
LWPOLYLINE
5
100
100
AcDbEntity
8
0
100
AcDbPolyline
90
4
70
1
43
0.0
10
-211.50000000000003
20
-130.66666666666666
10
-208.5
20
-130.66666666666666
10
-208.5
20
-120
10
-211.50000000000003
20
-120
0
LWPOLYLINE
5
101
100
AcDbEntity
8
0
100
AcDbPolyline
90
4
70
1
43
0.0
10
-350.49999882280827
20
-162.88889090220135
10
-353.49999882280827
20
-162.88889090220135
10
-353.49999882280827
20
-168.33333522081375
10
-350.49999882280827
20
-168.33333522081375
0
LWPOLYLINE
5
102
100
AcDbEntity
8
0
100
AcDbPolyline
90
4
70
1
43
0.0
10
-350.49999882280827
20
-233.66666704416275
10
-350.49999882280827
20
-228.22222272555035
10
-353.49999882280827
20
-228.22222272555035
10
-353.49999882280827
20
-233.66666704416275
0
LWPOLYLINE
5
103
100
AcDbEntity
8
0
100
AcDbPolyline
90
4
70
1
43
0.0
10
-350.49999882280827
20
-184.666668176651
10
-353.49999882280827
20
-184.666668176651
10
-353.49999882280827
20
-190.1111124952634
10
-350.49999882280827
20
-190.1111124952634
0
LWPOLYLINE
5
104
100
AcDbEntity
8
0
100
AcDbPolyline
90
4
70
1
43
0.0
10
-350.49999882280827
20
-222.7777784069379
10
-350.49999882280827
20
-217.3333340883255
10
-353.49999882280827
20
-217.3333340883255
10
-353.49999882280827
20
-222.7777784069379
0
LWPOLYLINE
5
105
100
AcDbEntity
8
0
100
AcDbPolyline
90
4
70
1
43
0.0
10
-350.49999882280827
20
-206.44444545110065
10
-353.49999882280827
20
-206.44444545110065
10
-353.49999882280827
20
-211.8888897697131
10
-350.49999882280827
20
-211.8888897697131
0
LWPOLYLINE
5
106
100
AcDbEntity
8
0
100
AcDbPolyline
90
4
70
1
43
0.0
10
-350.49999882280827
20
-201.00000113248825
10
-350.49999882280827
20
-195.5555568138758
10
-353.49999882280827
20
-195.5555568138758
10
-353.49999882280827
20
-201.00000113248825
0
LWPOLYLINE
5
107
100
AcDbEntity
8
0
100
AcDbPolyline
90
4
70
1
43
0.0
10
-350.49999882280827
20
-173.77777953942615
10
-353.49999882280827
20
-173.77777953942615
10
-353.49999882280827
20
-179.2222238580386
10
-350.49999882280827
20
-179.2222238580386
0
LINE
5
108
100
AcDbEntity
8
0
100
AcDbLine
10
-350.49999882280827
20
-152.0000022649765
30
0
11
-350.49999882280827
21
-157.4444465835889
31
0
0
LINE
5
109
100
AcDbEntity
8
0
100
AcDbLine
10
-350.49999882280827
20
-157.4444465835889
30
0
11
-353.49999882280827
21
-157.4444465835889
31
0
0
LINE
5
110
100
AcDbEntity
8
0
100
AcDbLine
10
-353.49999882280827
20
-157.4444465835889
30
0
11
-353.49999882280827
21
-152.0000022649765
31
0
0
LINE
5
111
100
AcDbEntity
8
0
100
AcDbLine
10
-353.49999882280827
20
-152.0000022649765
30
0
11
-356.50000000000006
21
-152
31
0
0
LINE
5
112
100
AcDbEntity
8
0
100
AcDbLine
10
-356.50000000000006
20
-152
30
0
11
-356.50000000000006
21
-141.33333333333331
31
0
0
LINE
5
113
100
AcDbEntity
8
0
100
AcDbLine
10
-356.50000000000006
20
-141.33333333333331
30
0
11
-353.50000000000011
21
-141.33333333333331
31
0
0
LINE
5
114
100
AcDbEntity
8
0
100
AcDbLine
10
-353.50000000000011
20
-141.33333333333331
30
0
11
-353.49999882280827
21
-152.0000022649765
31
0
0
LINE
5
115
100
AcDbEntity
8
0
100
AcDbLine
10
-353.49999882280827
20
-152.0000022649765
30
0
11
-350.49999882280827
21
-152.0000022649765
31
0
0
LWPOLYLINE
5
116
100
AcDbEntity
8
0
100
AcDbPolyline
90
4
70
1
43
0.0
10
-350.49999882280827
20
-244.5555556813876
10
-350.49999882280827
20
-239.11111136277515
10
-353.49999882280827
20
-239.11111136277515
10
-353.49999882280827
20
-244.5555556813876
0
LWPOLYLINE
5
117
100
AcDbEntity
8
0
100
AcDbPolyline
90
4
70
1
43
0.0
10
-211.5
20
-162.88889090220135
10
-214.5
20
-162.88889090220135
10
-214.5
20
-168.33333522081375
10
-211.5
20
-168.33333522081375
0
LWPOLYLINE
5
118
100
AcDbEntity
8
0
100
AcDbPolyline
90
4
70
1
43
0.0
10
-211.5
20
-233.66666704416275
10
-211.5
20
-228.22222272555035
10
-214.5
20
-228.22222272555035
10
-214.5
20
-233.66666704416275
0
LWPOLYLINE
5
119
100
AcDbEntity
8
0
100
AcDbPolyline
90
4
70
1
43
0.0
10
-211.5
20
-184.666668176651
10
-214.5
20
-184.666668176651
10
-214.5
20
-190.1111124952634
10
-211.5
20
-190.1111124952634
0
LWPOLYLINE
5
120
100
AcDbEntity
8
0
100
AcDbPolyline
90
4
70
1
43
0.0
10
-211.5
20
-222.7777784069379
10
-211.5
20
-217.3333340883255
10
-214.5
20
-217.3333340883255
10
-214.5
20
-222.7777784069379
0
LWPOLYLINE
5
121
100
AcDbEntity
8
0
100
AcDbPolyline
90
4
70
1
43
0.0
10
-211.5
20
-206.44444545110065
10
-214.5
20
-206.44444545110065
10
-214.5
20
-211.8888897697131
10
-211.5
20
-211.8888897697131
0
LWPOLYLINE
5
122
100
AcDbEntity
8
0
100
AcDbPolyline
90
4
70
1
43
0.0
10
-211.5
20
-201.00000113248825
10
-211.5
20
-195.5555568138758
10
-214.5
20
-195.5555568138758
10
-214.5
20
-201.00000113248825
0
LWPOLYLINE
5
123
100
AcDbEntity
8
0
100
AcDbPolyline
90
4
70
1
43
0.0
10
-211.5
20
-173.77777953942615
10
-214.5
20
-173.77777953942615
10
-214.5
20
-179.2222238580386
10
-211.5
20
-179.2222238580386
0
LINE
5
124
100
AcDbEntity
8
0
100
AcDbLine
10
-211.5
20
-152.0000022649765
30
0
11
-211.5
21
-157.4444465835889
31
0
0
LINE
5
125
100
AcDbEntity
8
0
100
AcDbLine
10
-211.5
20
-157.4444465835889
30
0
11
-214.5
21
-157.4444465835889
31
0
0
LINE
5
126
100
AcDbEntity
8
0
100
AcDbLine
10
-214.5
20
-157.4444465835889
30
0
11
-214.5
21
-152.0000022649765
31
0
0
LINE
5
127
100
AcDbEntity
8
0
100
AcDbLine
10
-214.5
20
-152.0000022649765
30
0
11
-211.5
21
-152.0000022649765
31
0
0
LINE
5
128
100
AcDbEntity
8
0
100
AcDbLine
10
-211.5
20
-152.0000022649765
30
0
11
-211.50000000000003
21
-141.33333333333331
31
0
0
LINE
5
129
100
AcDbEntity
8
0
100
AcDbLine
10
-211.50000000000003
20
-141.33333333333331
30
0
11
-208.5
21
-141.33333333333331
31
0
0
LINE
5
130
100
AcDbEntity
8
0
100
AcDbLine
10
-208.5
20
-141.33333333333331
30
0
11
-208.5
21
-152
31
0
0
LINE
5
131
100
AcDbEntity
8
0
100
AcDbLine
10
-208.5
20
-152
30
0
11
-211.5
21
-152.0000022649765
31
0
0
LWPOLYLINE
5
132
100
AcDbEntity
8
0
100
AcDbPolyline
90
4
70
1
43
0.0
10
-211.5
20
-244.5555556813876
10
-211.5
20
-239.11111136277515
10
-214.5
20
-239.11111136277515
10
-214.5
20
-244.5555556813876
0
LWPOLYLINE
5
133
100
AcDbEntity
8
0
100
AcDbPolyline
90
212
70
1
43
0.0
10
-155.18518518518522
20
-3.0000000000000071
10
-155.18518518518522
20
0
10
-145.00000000000003
20
0
10
-145.00000000000003
20
-10.739130434782638
10
-148.00000000000006
20
-10.739130434782638
10
-148.00000000000006
20
-21.478260869565204
10
-145.00000000000003
20
-21.478260869565204
10
-145.00000000000003
20
-32.217391304347842
10
-148.00000000000006
20
-32.217391304347842
10
-148.00000000000006
20
-42.956521739130444
10
-145.00000000000003
20
-42.956521739130444
10
-145.00000000000003
20
-53.695652173913082
10
-148.00000000000006
20
-53.695652173913082
10
-148.00000000000006
20
-64.434782608695656
10
-145.00000000000003
20
-64.434782608695656
10
-145.00000000000003
20
-75.173913043478279
10
-148.00000000000006
20
-75.173913043478279
10
-148.00000000000006
20
-85.913043478260889
10
-145.00000000000003
20
-85.913043478260889
10
-145.00000000000003
20
-96.652173913043512
10
-148.00000000000006
20
-96.652173913043512
10
-148.00000000000006
20
-107.39130434782612
10
-145.00000000000003
20
-107.39130434782612
10
-145.00000000000003
20
-118.13043478260873
10
-148.00000000000006
20
-118.13043478260873
10
-148.00000000000006
20
-128.86956521739134
10
-145.00000000000003
20
-128.86956521739134
10
-145.00000000000003
20
-139.60869565217394
10
-148.00000000000006
20
-139.60869565217394
10
-148.00000000000006
20
-150.34782608695656
10
-145.00000000000003
20
-150.34782608695656
10
-145.00000000000003
20
-161.08695652173913
10
-148.00000000000006
20
-161.08695652173913
10
-148.00000000000006
20
-171.82608695652178
10
-145.00000000000003
20
-171.82608695652178
10
-145.00000000000003
20
-182.56521739130437
10
-148.00000000000006
20
-182.56521739130437
10
-148.00000000000006
20
-193.304347826087
10
-145.00000000000003
20
-193.304347826087
10
-145.00000000000003
20
-204.04347826086959
10
-148.00000000000006
20
-204.04347826086959
10
-148.00000000000006
20
-214.78260869565219
10
-145.00000000000003
20
-214.78260869565219
10
-145.00000000000003
20
-225.52173913043481
10
-148.00000000000006
20
-225.52173913043481
10
-148.00000000000006
20
-236.26086956521743
10
-145.00000000000003
20
-236.26086956521743
10
-145.00000000000003
20
-247
10
-155.18518518518522
20
-247
10
-155.18518518518522
20
-250
10
-165.37037037037038
20
-250
10
-165.37037037037038
20
-247
10
-175.55555555555557
20
-247
10
-175.55555555555557
20
-250
10
-185.74074074074076
20
-250
10
-185.74074074074076
20
-247
10
-195.92592592592595
20
-247
10
-195.92592592592595
20
-250
10
-206.11111111111114
20
-250
10
-206.11111111111114
20
-247
10
-216.29629629629633
20
-247
10
-216.29629629629633
20
-250
10
-222.5
20
-250
10
-222.5
20
-240
10
-242.5
20
-240
10
-242.5
20
-250
10
-244.5
20
-250
10
-244.5
20
-247.00000000000003
10
-246.5
20
-247.00000000000003
10
-246.5
20
-250
10
-248.5
20
-250
10
-248.5
20
-247.00000000000003
10
-250.5
20
-247.00000000000003
10
-250.5
20
-250
10
-252.5
20
-250
10
-252.5
20
-240
10
-272.5
20
-240
10
-272.5
20
-247
10
-276.49999958276749
20
-247.00000000000003
10
-276.49999958276749
20
-250
10
-280.49999916553497
20
-250
10
-280.49999916553497
20
-247.00000000000003
10
-284.49999874830246
20
-247.00000000000003
10
-284.49999874830246
20
-250
10
-288.49999833106995
20
-250
10
-288.49999833106995
20
-247.00000000000003
10
-292.49999791383743
20
-247
10
-292.5
20
-240
10
-312.5
20
-240
10
-312.5
20
-250
10
-314.5
20
-250
10
-314.5
20
-247
10
-316.5
20
-247
10
-316.5
20
-250
10
-318.5
20
-250
10
-318.5
20
-247
10
-320.50000000000006
20
-247
10
-320.50000000000006
20
-250
10
-322.5
20
-250
10
-322.5
20
-240
10
-342.5
20
-240
10
-342.5
20
-250
10
-348.7037037037037
20
-250
10
-348.7037037037037
20
-247
10
-358.88888888888886
20
-247
10
-358.88888888888886
20
-250
10
-369.07407407407402
20
-250
10
-369.07407407407402
20
-247
10
-379.25925925925924
20
-247
10
-379.25925925925924
20
-250
10
-389.44444444444446
20
-250
10
-389.44444444444446
20
-247
10
-399.62962962962962
20
-247
10
-399.62962962962962
20
-250
10
-409.81481481481478
20
-250
10
-409.81481481481478
20
-247
10
-420
20
-247
10
-420
20
-236.26086956521738
10
-417
20
-236.26086956521738
10
-417
20
-225.52173913043475
10
-420
20
-225.52173913043478
10
-420
20
-214.78260869565219
10
-417
20
-214.78260869565219
10
-417
20
-204.04347826086956
10
-420
20
-204.04347826086956
10
-420
20
-193.30434782608694
10
-417
20
-193.30434782608694
10
-417
20
-182.56521739130434
10
-420
20
-182.56521739130434
10
-420
20
-171.82608695652175
10
-417
20
-171.82608695652175
10
-417
20
-161.08695652173913
10
-420
20
-161.08695652173913
10
-420
20
-150.34782608695653
10
-417
20
-150.34782608695653
10
-417
20
-139.60869565217391
10
-420
20
-139.60869565217391
10
-420
20
-128.86956521739131
10
-417
20
-128.86956521739131
10
-417
20
-118.13043478260869
10
-420
20
-118.13043478260869
10
-420
20
-107.39130434782609
10
-417
20
-107.39130434782609
10
-417
20
-96.65217391304347
10
-420
20
-96.65217391304347
10
-420
20
-85.913043478260846
10
-417
20
-85.913043478260846
10
-417
20
-75.173913043478251
10
-420
20
-75.173913043478251
10
-420
20
-64.434782608695613
10
-417
20
-64.434782608695613
10
-417
20
-53.695652173913047
10
-420
20
-53.695652173913047
10
-420
20
-42.956521739130409
10
-417
20
-42.956521739130409
10
-417
20
-32.217391304347807
10
-420
20
-32.217391304347807
10
-420
20
-21.478260869565169
10
-417
20
-21.478260869565169
10
-417
20
-10.739130434782602
10
-420
20
-10.739130434782602
10
-420
20
0
10
-409.81481481481478
20
0
10
-409.81481481481478
20
-3.0000000000000071
10
-399.62962962962962
20
-3.0000000000000071
10
-399.62962962962962
20
0
10
-389.44444444444446
20
0
10
-389.44444444444446
20
-3.0000000000000071
10
-379.25925925925924
20
-3.0000000000000071
10
-379.25925925925924
20
0
10
-369.07407407407402
20
0
10
-369.07407407407402
20
-3.0000000000000071
10
-358.88888888888886
20
-3.0000000000000071
10
-358.88888888888886
20
0
10
-348.7037037037037
20
0
10
-348.7037037037037
20
-3.0000000000000071
10
-338.51851851851853
20
-3.0000000000000071
10
-338.51851851851853
20
0
10
-328.33333333333337
20
0
10
-328.33333333333337
20
-3.0000000000000071
10
-318.14814814814815
20
-3.0000000000000071
10
-318.14814814814815
20
0
10
-307.96296296296299
20
0
10
-307.96296296296299
20
-3.0000000000000071
10
-297.77777777777777
20
-3.0000000000000071
10
-297.77777777777777
20
0
10
-287.59259259259261
20
0
10
-287.59259259259261
20
-3.0000000000000071
10
-277.40740740740745
20
-3.0000000000000071
10
-277.40740740740745
20
0
10
-267.22222222222223
20
0
10
-267.22222222222223
20
-3.0000000000000071
10
-257.03703703703707
20
-3.0000000000000071
10
-257.03703703703707
20
0
10
-246.85185185185188
20
0
10
-246.85185185185188
20
-3.0000000000000071
10
-236.66666666666671
20
-3.0000000000000071
10
-236.66666666666671
20
0
10
-226.48148148148152
20
0
10
-226.48148148148152
20
-3.0000000000000071
10
-216.29629629629633
20
-3.0000000000000071
10
-216.29629629629633
20
0
10
-206.11111111111114
20
0
10
-206.11111111111114
20
-3.0000000000000071
10
-195.92592592592595
20
-3.0000000000000071
10
-195.92592592592595
20
0
10
-185.74074074074076
20
0
10
-185.74074074074076
20
-3.0000000000000071
10
-175.55555555555557
20
-3.0000000000000071
10
-175.55555555555557
20
0
10
-165.37037037037041
20
0
10
-165.37037037037038
20
-3.0000000000000071
0
LWPOLYLINE
5
134
100
AcDbEntity
8
0
100
AcDbPolyline
90
4
70
1
43
0.0
10
-353.50000000000011
20
-130.66666666666666
10
-353.50000000000011
20
-120
10
-356.50000000000006
20
-120
10
-356.50000000000006
20
-130.66666666666666
0
ENDSEC
0
SECTION
2
OBJECTS
0
DICTIONARY
5
C
100
AcDbDictionary
3
ACAD_GROUP
350
D
3
ACAD_MLINESTYLE
350
17
0
DICTIONARY
5
D
100
AcDbDictionary
0
DICTIONARY
5
1A
330
C
100
AcDbDictionary
0
DICTIONARY
5
17
100
AcDbDictionary
0
ENDSEC
0
EOF
