0
SECTION
2
HEADER
9
$INSUNITS
70
4
9
$ACADVER
1
AC1014
9
$HANDSEED
5
FFFF
0
ENDSEC
0
SECTION
2
TABLES
0
TABLE
2
VPORT
5
8
100
AcDbSymbolTable
0
ENDTAB
0
TABLE
2
LTYPE
5
5
100
AcDbSymbolTable
0
LTYPE
5
14
100
AcDbSymbolTableRecord
100
AcDbLinetypeTableRecord
2
BYBLOCK
70
0
0
LTYPE
5
15
100
AcDbSymbolTableRecord
100
AcDbLinetypeTableRecord
2
BYLAYER
70
0
0
ENDTAB
0
TABLE
2
LAYER
5
2
100
AcDbSymbolTable
70
2
0
LAYER
5
50
100
AcDbSymbolTableRecord
100
AcDbLayerTableRecord
2
0
70
0
6
CONTINUOUS
0
ENDTAB
0
TABLE
2
STYLE
5
3
100
AcDbSymbolTable
70
1
0
STYLE
5
11
100
AcDbSymbolTableRecord
100
AcDbTextStyleTableRecord
2
STANDARD
70
0
0
ENDTAB
0
TABLE
2
VIEW
5
6
100
AcDbSymbolTable
70
0
0
ENDTAB
0
TABLE
2
UCS
5
7
100
AcDbSymbolTable
70
0
0
ENDTAB
0
TABLE
2
APPID
5
9
100
AcDbSymbolTable
70
2
0
APPID
5
12
100
AcDbSymbolTableRecord
100
AcDbRegAppTableRecord
2
ACAD
70
0
0
ENDTAB
0
TABLE
2
DIMSTYLE
5
A
100
AcDbSymbolTable
70
1
0
ENDTAB
0
TABLE
2
BLOCK_RECORD
5
1
100
AcDbSymbolTable
70
1
0
BLOCK_RECORD
5
1F
100
AcDbSymbolTableRecord
100
AcDbBlockTableRecord
2
*MODEL_SPACE
0
BLOCK_RECORD
5
1B
100
AcDbSymbolTableRecord
100
AcDbBlockTableRecord
2
*PAPER_SPACE
0
ENDTAB
0
ENDSEC
0
SECTION
2
BLOCKS
0
BLOCK
5
20
100
AcDbEntity
100
AcDbBlockBegin
2
*MODEL_SPACE
0
ENDBLK
5
21
100
AcDbEntity
100
AcDbBlockEnd
0
BLOCK
5
1C
100
AcDbEntity
100
AcDbBlockBegin
2
*PAPER_SPACE
0
ENDBLK
5
1D
100
AcDbEntity
100
AcDbBlockEnd
0
ENDSEC
0
SECTION
2
ENTITIES
0
LWPOLYLINE
5
100
100
AcDbEntity
8
0
100
AcDbPolyline
90
56
70
1
43
0.0
10
-353.49999900907278
20
120
10
-353.49999900907278
20
117
10
-420
20
117.00000174343586
10
-420
20
128.85714435151644
10
-417
20
128.85714435151644
10
-417
20
140.71428695959702
10
-420
20
140.71428695959702
10
-420
20
152.57142956767763
10
-417
20
152.57142956767763
10
-417
20
164.42857217575821
10
-420
20
164.42857217575821
10
-420
20
176.28571478383884
10
-417
20
176.28571478383884
10
-417
20
188.14285739191942
10
-420
20
188.14285739191942
10
-420
20
200
10
-144.99999590218067
20
200
10
-144.99999590218067
20
188.14285739191942
10
-148.00000000000006
20
188.14285739191942
10
-148.00000000000006
20
176.28571478383884
10
-144.99999590218067
20
176.28571478383884
10
-144.99999590218067
20
164.42857217575823
10
-148.00000000000006
20
164.42857217575823
10
-148.00000000000006
20
152.57142956767763
10
-144.99999590218067
20
152.57142956767763
10
-144.99999590218067
20
140.71428695959705
10
-148.00000000000006
20
140.71428695959705
10
-148.00000000000006
20
128.85714435151644
10
-144.99999590218067
20
128.85714435151644
10
-144.99999590218067
20
117.00000174343586
10
-211.49999900907275
20
117
10
-211.49999900907275
20
120
10
-222.42307397895132
20
120
10
-222.42307397895132
20
117
10
-233.34615106479481
20
117
10
-233.34615106479481
20
120
10
-244.26922815063824
20
120
10
-244.26922815063824
20
117
10
-255.19230523648167
20
117
10
-255.19230523648167
20
120
10
-266.11538232232516
20
120
10
-266.11538232232516
20
117
10
-277.03845940816859
20
117
10
-277.03845940816859
20
120
10
-287.96153649401208
20
120
10
-287.96153649401208
20
117
10
-298.88461357985545
20
117
10
-298.88461357985545
20
120
10
-309.807690665699
20
120
10
-309.807690665699
20
117
10
-320.73076775154243
20
117
10
-320.73076775154243
20
120
10
-331.65384483738592
20
120
10
-331.65384483738592
20
117
10
-342.57692192322935
20
117
10
-342.57692192322935
20
120
0
ENDSEC
0
SECTION
2
OBJECTS
0
DICTIONARY
5
C
100
AcDbDictionary
3
ACAD_GROUP
350
D
3
ACAD_MLINESTYLE
350
17
0
DICTIONARY
5
D
100
AcDbDictionary
0
DICTIONARY
5
1A
330
C
100
AcDbDictionary
0
DICTIONARY
5
17
100
AcDbDictionary
0
ENDSEC
0
EOF
