0
SECTION
2
HEADER
9
$INSUNITS
70
4
9
$ACADVER
1
AC1014
9
$HANDSEED
5
FFFF
0
ENDSEC
0
SECTION
2
TABLES
0
TABLE
2
VPORT
5
8
100
AcDbSymbolTable
0
ENDTAB
0
TABLE
2
LTYPE
5
5
100
AcDbSymbolTable
0
LTYPE
5
14
100
AcDbSymbolTableRecord
100
AcDbLinetypeTableRecord
2
BYBLOCK
70
0
0
LTYPE
5
15
100
AcDbSymbolTableRecord
100
AcDbLinetypeTableRecord
2
BYLAYER
70
0
0
ENDTAB
0
TABLE
2
LAYER
5
2
100
AcDbSymbolTable
70
2
0
LAYER
5
50
100
AcDbSymbolTableRecord
100
AcDbLayerTableRecord
2
0
70
0
6
CONTINUOUS
0
ENDTAB
0
TABLE
2
STYLE
5
3
100
AcDbSymbolTable
70
1
0
STYLE
5
11
100
AcDbSymbolTableRecord
100
AcDbTextStyleTableRecord
2
STANDARD
70
0
0
ENDTAB
0
TABLE
2
VIEW
5
6
100
AcDbSymbolTable
70
0
0
ENDTAB
0
TABLE
2
UCS
5
7
100
AcDbSymbolTable
70
0
0
ENDTAB
0
TABLE
2
APPID
5
9
100
AcDbSymbolTable
70
2
0
APPID
5
12
100
AcDbSymbolTableRecord
100
AcDbRegAppTableRecord
2
ACAD
70
0
0
ENDTAB
0
TABLE
2
DIMSTYLE
5
A
100
AcDbSymbolTable
70
1
0
ENDTAB
0
TABLE
2
BLOCK_RECORD
5
1
100
AcDbSymbolTable
70
1
0
BLOCK_RECORD
5
1F
100
AcDbSymbolTableRecord
100
AcDbBlockTableRecord
2
*MODEL_SPACE
0
BLOCK_RECORD
5
1B
100
AcDbSymbolTableRecord
100
AcDbBlockTableRecord
2
*PAPER_SPACE
0
ENDTAB
0
ENDSEC
0
SECTION
2
BLOCKS
0
BLOCK
5
20
100
AcDbEntity
100
AcDbBlockBegin
2
*MODEL_SPACE
0
ENDBLK
5
21
100
AcDbEntity
100
AcDbBlockEnd
0
BLOCK
5
1C
100
AcDbEntity
100
AcDbBlockBegin
2
*PAPER_SPACE
0
ENDBLK
5
1D
100
AcDbEntity
100
AcDbBlockEnd
0
ENDSEC
0
SECTION
2
ENTITIES
0
LWPOLYLINE
5
100
100
AcDbEntity
8
0
100
AcDbPolyline
90
50
70
1
43
0.0
10
250
20
14.428571605256623
10
247.00000000000003
20
14.428571605256625
10
247.00000000000003
20
2.9999999999999982
10
244.55555568138755
20
2.9999999999999982
10
244.55555568138763
20
0
10
239.11111136277512
20
0
10
239.11111136277512
20
2.9999999999999982
10
233.66666704416275
20
2.9999999999999982
10
233.66666704416275
20
0
10
228.22222272555038
20
0
10
228.2222227255503
20
2.9999999999999982
10
222.77777840693787
20
2.9999999999999982
10
222.77777840693787
20
0
10
217.3333340883255
20
0
10
217.3333340883255
20
2.9999999999999982
10
211.88888976971305
20
2.9999999999999982
10
211.88888976971313
20
0
10
206.44444545110065
20
0
10
206.44444545110065
20
2.9999999999999982
10
201.00000113248825
20
2.9999999999999982
10
201.00000113248825
20
0
10
195.5555568138758
20
0
10
195.5555568138758
20
2.9999999999999982
10
190.1111124952634
20
2.9999999999999982
10
190.1111124952634
20
0
10
184.666668176651
20
0
10
184.666668176651
20
2.9999999999999982
10
179.2222238580386
20
2.9999999999999982
10
179.2222238580386
20
0
10
173.77777953942615
20
0
10
173.77777953942615
20
2.9999999999999982
10
168.33333522081375
20
2.9999999999999982
10
168.33333522081375
20
0
10
162.88889090220135
20
0
10
162.88889090220135
20
2.9999999999999982
10
157.4444465835889
20
2.9999999999999982
10
157.4444465835889
20
0
10
152.0000022649765
20
0
10
152.0000022649765
20
83.000001236796379
10
247.00000000000003
20
83
10
247.00000000000003
20
71.571429631539758
10
250
20
71.571429631539758
10
250
20
60.142858026283136
10
247.00000000000003
20
60.142858026283136
10
247.00000000000003
20
48.7142864210265
10
250
20
48.7142864210265
10
250
20
37.285714815769879
10
247.00000000000003
20
37.285714815769879
10
247.00000000000003
20
25.857143210513254
10
250
20
25.857143210513243
0
LWPOLYLINE
5
101
100
AcDbEntity
8
0
100
AcDbPolyline
90
4
70
1
43
0.0
10
229.00000341236591
20
57.000000849366188
10
226.00000336766243
20
57.000000849366188
10
226.00000336766243
20
54.000000804662704
10
229.00000341236591
20
54.000000804662704
0
ENDSEC
0
SECTION
2
OBJECTS
0
DICTIONARY
5
C
100
AcDbDictionary
3
ACAD_GROUP
350
D
3
ACAD_MLINESTYLE
350
17
0
DICTIONARY
5
D
100
AcDbDictionary
0
DICTIONARY
5
1A
330
C
100
AcDbDictionary
0
DICTIONARY
5
17
100
AcDbDictionary
0
ENDSEC
0
EOF
