0
SECTION
2
HEADER
9
$INSUNITS
70
4
9
$ACADVER
1
AC1014
9
$HANDSEED
5
FFFF
0
ENDSEC
0
SECTION
2
TABLES
0
TABLE
2
VPORT
5
8
100
AcDbSymbolTable
0
ENDTAB
0
TABLE
2
LTYPE
5
5
100
AcDbSymbolTable
0
LTYPE
5
14
100
AcDbSymbolTableRecord
100
AcDbLinetypeTableRecord
2
BYBLOCK
70
0
0
LTYPE
5
15
100
AcDbSymbolTableRecord
100
AcDbLinetypeTableRecord
2
BYLAYER
70
0
0
ENDTAB
0
TABLE
2
LAYER
5
2
100
AcDbSymbolTable
70
2
0
LAYER
5
50
100
AcDbSymbolTableRecord
100
AcDbLayerTableRecord
2
0
70
0
6
CONTINUOUS
0
ENDTAB
0
TABLE
2
STYLE
5
3
100
AcDbSymbolTable
70
1
0
STYLE
5
11
100
AcDbSymbolTableRecord
100
AcDbTextStyleTableRecord
2
STANDARD
70
0
0
ENDTAB
0
TABLE
2
VIEW
5
6
100
AcDbSymbolTable
70
0
0
ENDTAB
0
TABLE
2
UCS
5
7
100
AcDbSymbolTable
70
0
0
ENDTAB
0
TABLE
2
APPID
5
9
100
AcDbSymbolTable
70
2
0
APPID
5
12
100
AcDbSymbolTableRecord
100
AcDbRegAppTableRecord
2
ACAD
70
0
0
ENDTAB
0
TABLE
2
DIMSTYLE
5
A
100
AcDbSymbolTable
70
1
0
ENDTAB
0
TABLE
2
BLOCK_RECORD
5
1
100
AcDbSymbolTable
70
1
0
BLOCK_RECORD
5
1F
100
AcDbSymbolTableRecord
100
AcDbBlockTableRecord
2
*MODEL_SPACE
0
BLOCK_RECORD
5
1B
100
AcDbSymbolTableRecord
100
AcDbBlockTableRecord
2
*PAPER_SPACE
0
ENDTAB
0
ENDSEC
0
SECTION
2
BLOCKS
0
BLOCK
5
20
100
AcDbEntity
100
AcDbBlockBegin
2
*MODEL_SPACE
0
ENDBLK
5
21
100
AcDbEntity
100
AcDbBlockEnd
0
BLOCK
5
1C
100
AcDbEntity
100
AcDbBlockBegin
2
*PAPER_SPACE
0
ENDBLK
5
1D
100
AcDbEntity
100
AcDbBlockEnd
0
ENDSEC
0
SECTION
2
ENTITIES
0
LWPOLYLINE
5
100
100
AcDbEntity
8
0
100
AcDbPolyline
90
4
70
1
43
0.0
10
320
20
137
10
320
20
140
10
245.00000000000003
20
140
10
245.00000000000003
20
137
0
LWPOLYLINE
5
101
100
AcDbEntity
8
0
100
AcDbPolyline
90
136
70
1
43
0.0
10
420
20
189.4736842105263
10
417
20
189.4736842105263
10
417
20
178.94736842105263
10
420
20
178.94736842105263
10
420
20
168.42105263157893
10
417
20
168.42105263157893
10
417
20
157.89473684210526
10
420
20
157.89473684210526
10
420
20
147.36842105263156
10
417
20
147.36842105263156
10
417
20
136.84210526315792
10
420
20
136.84210526315792
10
420
20
126.31578947368422
10
417
20
126.31578947368422
10
417
20
115.78947368421053
10
420
20
115.78947368421053
10
420
20
105.26315789473684
10
417
20
105.26315789473684
10
417
20
94.736842105263165
10
420
20
94.736842105263165
10
420
20
84.210526315789465
10
417
20
84.210526315789465
10
417
20
73.68421052631578
10
420
20
73.68421052631578
10
420
20
63.15789473684211
10
417
20
63.15789473684211
10
417
20
52.631578947368418
10
420
20
52.631578947368418
10
420
20
42.105263157894733
10
417
20
42.105263157894733
10
417
20
31.578947368421048
10
420
20
31.578947368421048
10
420
20
21.052631578947366
10
417
20
21.052631578947366
10
417
20
10.526315789473681
10
420
20
10.526315789473683
10
420
20
0
10
409.81481481481478
20
0
10
409.81481481481478
20
3.0000000000000004
10
399.62962962962962
20
3.0000000000000004
10
399.62962962962962
20
0
10
389.44444444444446
20
0
10
389.44444444444446
20
3.0000000000000004
10
379.25925925925924
20
3.0000000000000004
10
379.25925925925924
20
0
10
369.07407407407402
20
0
10
369.07407407407402
20
3.0000000000000004
10
358.88888888888886
20
3.0000000000000004
10
358.88888888888886
20
0
10
348.7037037037037
20
0
10
348.7037037037037
20
3.0000000000000004
10
342.5
20
3.0000000000000004
10
342.5
20
10
10
350.5
20
10
10
350.5
20
14.428571605256623
10
353.49999882280827
20
14.428571605256625
10
353.49999882280827
20
25.857143210513254
10
350.5
20
25.857143210513243
10
350.5
20
37.285714815769879
10
353.49999882280827
20
37.285714815769879
10
353.49999882280827
20
48.7142864210265
10
350.5
20
48.7142864210265
10
350.5
20
60.142858026283136
10
353.49999882280827
20
60.142858026283136
10
353.49999882280827
20
71.571429631539758
10
350.5
20
71.571429631539758
10
350.5
20
83
10
214.5
20
83
10
214.5
20
71.571429631539743
10
211.5
20
71.571429631539743
10
211.5
20
60.142858026283136
10
214.5
20
60.142858026283136
10
214.5
20
48.7142864210265
10
211.5
20
48.7142864210265
10
211.5
20
37.285714815769865
10
214.5
20
37.285714815769865
10
214.5
20
25.857143210513254
10
211.5
20
25.857143210513254
10
211.5
20
14.428571605256622
10
214.5
20
14.428571605256622
10
214.5
20
10
10
222.5
20
10
10
222.5
20
3.0000000000000004
10
216.29629629629633
20
3.0000000000000004
10
216.29629629629633
20
0
10
206.11111111111114
20
0
10
206.11111111111114
20
3.0000000000000004
10
195.92592592592595
20
3.0000000000000004
10
195.92592592592595
20
0
10
185.74074074074076
20
0
10
185.74074074074076
20
3.0000000000000004
10
175.55555555555557
20
3.0000000000000004
10
175.55555555555557
20
0
10
165.37037037037038
20
0
10
165.37037037037038
20
3.0000000000000004
10
155.18518518518522
20
3.0000000000000004
10
155.18518518518522
20
0
10
145.00000000000003
20
0
10
145.00000000000003
20
10.526315789473699
10
148.00000000000006
20
10.526315789473699
10
148.00000000000006
20
21.052631578947363
10
145.00000000000003
20
21.052631578947363
10
145.00000000000003
20
31.578947368421062
10
148.00000000000006
20
31.578947368421062
10
148.00000000000006
20
42.105263157894726
10
145.00000000000003
20
42.105263157894726
10
145.00000000000003
20
52.631578947368425
10
148.00000000000006
20
52.631578947368425
10
148.00000000000006
20
63.157894736842088
10
145.00000000000003
20
63.157894736842088
10
145.00000000000003
20
73.68421052631578
10
148.00000000000006
20
73.68421052631578
10
148.00000000000006
20
84.210526315789465
10
145.00000000000003
20
84.210526315789465
10
145.00000000000003
20
94.736842105263165
10
148.00000000000006
20
94.736842105263165
10
148.00000000000006
20
105.26315789473684
10
145.00000000000003
20
105.26315789473684
10
145.00000000000003
20
115.78947368421053
10
148.00000000000006
20
115.78947368421053
10
148.00000000000006
20
126.31578947368422
10
145.00000000000003
20
126.31578947368422
10
145.00000000000003
20
136.84210526315789
10
148.00000000000006
20
136.84210526315789
10
148.00000000000006
20
147.36842105263156
10
145.00000000000003
20
147.36842105263156
10
145.00000000000003
20
157.89473684210526
10
148.00000000000006
20
157.89473684210526
10
148.00000000000006
20
168.42105263157896
10
145.00000000000003
20
168.42105263157893
10
145.00000000000003
20
178.94736842105263
10
148.00000000000006
20
178.94736842105263
10
148.00000000000006
20
189.4736842105263
10
145.00000000000003
20
189.4736842105263
10
145.00000000000003
20
200
10
420
20
200
0
ENDSEC
0
SECTION
2
OBJECTS
0
DICTIONARY
5
C
100
AcDbDictionary
3
ACAD_GROUP
350
D
3
ACAD_MLINESTYLE
350
17
0
DICTIONARY
5
D
100
AcDbDictionary
0
DICTIONARY
5
1A
330
C
100
AcDbDictionary
0
DICTIONARY
5
17
100
AcDbDictionary
0
ENDSEC
0
EOF
